o cylinder
v 0.500000 0.500000 0.000000
v 0.500000 -0.500000 0.000000
v 0.490393 0.500000 0.097545
v 0.490393 -0.500000 0.097545
v 0.461940 0.500000 0.191342
v 0.461940 -0.500000 0.191342
v 0.415735 0.500000 0.277785
v 0.415735 -0.500000 0.277785
v 0.353553 0.500000 0.353553
v 0.353553 -0.500000 0.353553
v 0.277785 0.500000 0.415735
v 0.277785 -0.500000 0.415735
v 0.191342 0.500000 0.461940
v 0.191342 -0.500000 0.461940
v 0.097545 0.500000 0.490393
v 0.097545 -0.500000 0.490393
v 0.000000 0.500000 0.500000
v 0.000000 -0.500000 0.500000
v -0.097545 0.500000 0.490393
v -0.097545 -0.500000 0.490393
v -0.191342 0.500000 0.461940
v -0.191342 -0.500000 0.461940
v -0.277785 0.500000 0.415735
v -0.277785 -0.500000 0.415735
v -0.353553 0.500000 0.353553
v -0.353553 -0.500000 0.353553
v -0.415735 0.500000 0.277785
v -0.415735 -0.500000 0.277785
v -0.461940 0.500000 0.191342
v -0.461940 -0.500000 0.191342
v -0.490393 0.500000 0.097545
v -0.490393 -0.500000 0.097545
v -0.500000 0.500000 0.000000
v -0.500000 -0.500000 0.000000
v -0.490393 0.500000 -0.097545
v -0.490393 -0.500000 -0.097545
v -0.461940 0.500000 -0.191342
v -0.461940 -0.500000 -0.191342
v -0.415735 0.500000 -0.277785
v -0.415735 -0.500000 -0.277785
v -0.353553 0.500000 -0.353553
v -0.353553 -0.500000 -0.353553
v -0.277785 0.500000 -0.415735
v -0.277785 -0.500000 -0.415735
v -0.191342 0.500000 -0.461940
v -0.191342 -0.500000 -0.461940
v -0.097545 0.500000 -0.490393
v -0.097545 -0.500000 -0.490393
v 0.000000 0.500000 -0.500000
v 0.000000 -0.500000 -0.500000
v 0.097545 0.500000 -0.490393
v 0.097545 -0.500000 -0.490393
v 0.191342 0.500000 -0.461940
v 0.191342 -0.500000 -0.461940
v 0.277785 0.500000 -0.415735
v 0.277785 -0.500000 -0.415735
v 0.353553 0.500000 -0.353553
v 0.353553 -0.500000 -0.353553
v 0.415735 0.500000 -0.277785
v 0.415735 -0.500000 -0.277785
v 0.461940 0.500000 -0.191342
v 0.461940 -0.500000 -0.191342
v 0.490393 0.500000 -0.097545
v 0.490393 -0.500000 -0.097545
v 0.500000 0.500000 0.000000
v 0.500000 -0.500000 0.000000
v 0.000000 0.500000 0.000000
v 0.500000 0.500000 0.000000
v 0.490393 0.500000 0.097545
v 0.461940 0.500000 0.191342
v 0.415735 0.500000 0.277785
v 0.353553 0.500000 0.353553
v 0.277785 0.500000 0.415735
v 0.191342 0.500000 0.461940
v 0.097545 0.500000 0.490393
v 0.000000 0.500000 0.500000
v -0.097545 0.500000 0.490393
v -0.191342 0.500000 0.461940
v -0.277785 0.500000 0.415735
v -0.353553 0.500000 0.353553
v -0.415735 0.500000 0.277785
v -0.461940 0.500000 0.191342
v -0.490393 0.500000 0.097545
v -0.500000 0.500000 0.000000
v -0.490393 0.500000 -0.097545
v -0.461940 0.500000 -0.191342
v -0.415735 0.500000 -0.277785
v -0.353553 0.500000 -0.353553
v -0.277785 0.500000 -0.415735
v -0.191342 0.500000 -0.461940
v -0.097545 0.500000 -0.490393
v 0.000000 0.500000 -0.500000
v 0.097545 0.500000 -0.490393
v 0.191342 0.500000 -0.461940
v 0.277785 0.500000 -0.415735
v 0.353553 0.500000 -0.353553
v 0.415735 0.500000 -0.277785
v 0.461940 0.500000 -0.191342
v 0.490393 0.500000 -0.097545
v 0.500000 0.500000 0.000000
v 0.000000 -0.500000 0.000000
v 0.500000 -0.500000 0.000000
v 0.490393 -0.500000 0.097545
v 0.461940 -0.500000 0.191342
v 0.415735 -0.500000 0.277785
v 0.353553 -0.500000 0.353553
v 0.277785 -0.500000 0.415735
v 0.191342 -0.500000 0.461940
v 0.097545 -0.500000 0.490393
v 0.000000 -0.500000 0.500000
v -0.097545 -0.500000 0.490393
v -0.191342 -0.500000 0.461940
v -0.277785 -0.500000 0.415735
v -0.353553 -0.500000 0.353553
v -0.415735 -0.500000 0.277785
v -0.461940 -0.500000 0.191342
v -0.490393 -0.500000 0.097545
v -0.500000 -0.500000 0.000000
v -0.490393 -0.500000 -0.097545
v -0.461940 -0.500000 -0.191342
v -0.415735 -0.500000 -0.277785
v -0.353553 -0.500000 -0.353553
v -0.277785 -0.500000 -0.415735
v -0.191342 -0.500000 -0.461940
v -0.097545 -0.500000 -0.490393
v 0.000000 -0.500000 -0.500000
v 0.097545 -0.500000 -0.490393
v 0.191342 -0.500000 -0.461940
v 0.277785 -0.500000 -0.415735
v 0.353553 -0.500000 -0.353553
v 0.415735 -0.500000 -0.277785
v 0.461940 -0.500000 -0.191342
v 0.490393 -0.500000 -0.097545
v 0.500000 -0.500000 0.000000
vt 0.000000 1.000000
vt 0.000000 0.000000
vt 0.031250 1.000000
vt 0.031250 0.000000
vt 0.062500 1.000000
vt 0.062500 0.000000
vt 0.093750 1.000000
vt 0.093750 0.000000
vt 0.125000 1.000000
vt 0.125000 0.000000
vt 0.156250 1.000000
vt 0.156250 0.000000
vt 0.187500 1.000000
vt 0.187500 0.000000
vt 0.218750 1.000000
vt 0.218750 0.000000
vt 0.250000 1.000000
vt 0.250000 0.000000
vt 0.281250 1.000000
vt 0.281250 0.000000
vt 0.312500 1.000000
vt 0.312500 0.000000
vt 0.343750 1.000000
vt 0.343750 0.000000
vt 0.375000 1.000000
vt 0.375000 0.000000
vt 0.406250 1.000000
vt 0.406250 0.000000
vt 0.437500 1.000000
vt 0.437500 0.000000
vt 0.468750 1.000000
vt 0.468750 0.000000
vt 0.500000 1.000000
vt 0.500000 0.000000
vt 0.531250 1.000000
vt 0.531250 0.000000
vt 0.562500 1.000000
vt 0.562500 0.000000
vt 0.593750 1.000000
vt 0.593750 0.000000
vt 0.625000 1.000000
vt 0.625000 0.000000
vt 0.656250 1.000000
vt 0.656250 0.000000
vt 0.687500 1.000000
vt 0.687500 0.000000
vt 0.718750 1.000000
vt 0.718750 0.000000
vt 0.750000 1.000000
vt 0.750000 0.000000
vt 0.781250 1.000000
vt 0.781250 0.000000
vt 0.812500 1.000000
vt 0.812500 0.000000
vt 0.843750 1.000000
vt 0.843750 0.000000
vt 0.875000 1.000000
vt 0.875000 0.000000
vt 0.906250 1.000000
vt 0.906250 0.000000
vt 0.937500 1.000000
vt 0.937500 0.000000
vt 0.968750 1.000000
vt 0.968750 0.000000
vt 1.000000 1.000000
vt 1.000000 0.000000
vt 0.500000 0.500000
vt 1.000000 0.500000
vt 0.990393 0.597545
vt 0.961940 0.691342
vt 0.915735 0.777785
vt 0.853553 0.853553
vt 0.777785 0.915735
vt 0.691342 0.961940
vt 0.597545 0.990393
vt 0.500000 1.000000
vt 0.402455 0.990393
vt 0.308658 0.961940
vt 0.222215 0.915735
vt 0.146447 0.853553
vt 0.084265 0.777785
vt 0.038060 0.691342
vt 0.009607 0.597545
vt 0.000000 0.500000
vt 0.009607 0.402455
vt 0.038060 0.308658
vt 0.084265 0.222215
vt 0.146447 0.146447
vt 0.222215 0.084265
vt 0.308658 0.038060
vt 0.402455 0.009607
vt 0.500000 0.000000
vt 0.597545 0.009607
vt 0.691342 0.038060
vt 0.777785 0.084265
vt 0.853553 0.146447
vt 0.915735 0.222215
vt 0.961940 0.308658
vt 0.990393 0.402455
vt 1.000000 0.500000
vt 0.500000 0.500000
vt 1.000000 0.500000
vt 0.990393 0.597545
vt 0.961940 0.691342
vt 0.915735 0.777785
vt 0.853553 0.853553
vt 0.777785 0.915735
vt 0.691342 0.961940
vt 0.597545 0.990393
vt 0.500000 1.000000
vt 0.402455 0.990393
vt 0.308658 0.961940
vt 0.222215 0.915735
vt 0.146447 0.853553
vt 0.084265 0.777785
vt 0.038060 0.691342
vt 0.009607 0.597545
vt 0.000000 0.500000
vt 0.009607 0.402455
vt 0.038060 0.308658
vt 0.084265 0.222215
vt 0.146447 0.146447
vt 0.222215 0.084265
vt 0.308658 0.038060
vt 0.402455 0.009607
vt 0.500000 0.000000
vt 0.597545 0.009607
vt 0.691342 0.038060
vt 0.777785 0.084265
vt 0.853553 0.146447
vt 0.915735 0.222215
vt 0.961940 0.308658
vt 0.990393 0.402455
vt 1.000000 0.500000
vn 1.000000 0.000000 0.000000
vn 0.980785 0.000000 0.195090
vn 0.923880 0.000000 0.382683
vn 0.831470 0.000000 0.555570
vn 0.707107 0.000000 0.707107
vn 0.555570 0.000000 0.831470
vn 0.382683 0.000000 0.923880
vn 0.195090 0.000000 0.980785
vn 0.000000 0.000000 1.000000
vn -0.195090 0.000000 0.980785
vn -0.382683 0.000000 0.923880
vn -0.555570 0.000000 0.831470
vn -0.707107 0.000000 0.707107
vn -0.831470 0.000000 0.555570
vn -0.923880 0.000000 0.382683
vn -0.980785 0.000000 0.195090
vn -1.000000 0.000000 0.000000
vn -0.980785 0.000000 -0.195090
vn -0.923880 0.000000 -0.382683
vn -0.831470 0.000000 -0.555570
vn -0.707107 0.000000 -0.707107
vn -0.555570 0.000000 -0.831470
vn -0.382683 0.000000 -0.923880
vn -0.195090 0.000000 -0.980785
vn 0.000000 0.000000 -1.000000
vn 0.195090 0.000000 -0.980785
vn 0.382683 0.000000 -0.923880
vn 0.555570 0.000000 -0.831470
vn 0.707107 0.000000 -0.707107
vn 0.831470 0.000000 -0.555570
vn 0.923880 0.000000 -0.382683
vn 0.980785 0.000000 -0.195090
vn 1.000000 0.000000 0.000000
vn 0.000000 1.000000 0.000000
vn 0.000000 -1.000000 0.000000
f 2/2/1 1/1/1 3/3/2 4/4/2
f 4/4/2 3/3/2 5/5/3 6/6/3
f 6/6/3 5/5/3 7/7/4 8/8/4
f 8/8/4 7/7/4 9/9/5 10/10/5
f 10/10/5 9/9/5 11/11/6 12/12/6
f 12/12/6 11/11/6 13/13/7 14/14/7
f 14/14/7 13/13/7 15/15/8 16/16/8
f 16/16/8 15/15/8 17/17/9 18/18/9
f 18/18/9 17/17/9 19/19/10 20/20/10
f 20/20/10 19/19/10 21/21/11 22/22/11
f 22/22/11 21/21/11 23/23/12 24/24/12
f 24/24/12 23/23/12 25/25/13 26/26/13
f 26/26/13 25/25/13 27/27/14 28/28/14
f 28/28/14 27/27/14 29/29/15 30/30/15
f 30/30/15 29/29/15 31/31/16 32/32/16
f 32/32/16 31/31/16 33/33/17 34/34/17
f 34/34/17 33/33/17 35/35/18 36/36/18
f 36/36/18 35/35/18 37/37/19 38/38/19
f 38/38/19 37/37/19 39/39/20 40/40/20
f 40/40/20 39/39/20 41/41/21 42/42/21
f 42/42/21 41/41/21 43/43/22 44/44/22
f 44/44/22 43/43/22 45/45/23 46/46/23
f 46/46/23 45/45/23 47/47/24 48/48/24
f 48/48/24 47/47/24 49/49/25 50/50/25
f 50/50/25 49/49/25 51/51/26 52/52/26
f 52/52/26 51/51/26 53/53/27 54/54/27
f 54/54/27 53/53/27 55/55/28 56/56/28
f 56/56/28 55/55/28 57/57/29 58/58/29
f 58/58/29 57/57/29 59/59/30 60/60/30
f 60/60/30 59/59/30 61/61/31 62/62/31
f 62/62/31 61/61/31 63/63/32 64/64/32
f 64/64/32 63/63/32 65/65/33 66/66/33
f 67/67/34 69/69/34 68/68/34
f 67/67/34 70/70/34 69/69/34
f 67/67/34 71/71/34 70/70/34
f 67/67/34 72/72/34 71/71/34
f 67/67/34 73/73/34 72/72/34
f 67/67/34 74/74/34 73/73/34
f 67/67/34 75/75/34 74/74/34
f 67/67/34 76/76/34 75/75/34
f 67/67/34 77/77/34 76/76/34
f 67/67/34 78/78/34 77/77/34
f 67/67/34 79/79/34 78/78/34
f 67/67/34 80/80/34 79/79/34
f 67/67/34 81/81/34 80/80/34
f 67/67/34 82/82/34 81/81/34
f 67/67/34 83/83/34 82/82/34
f 67/67/34 84/84/34 83/83/34
f 67/67/34 85/85/34 84/84/34
f 67/67/34 86/86/34 85/85/34
f 67/67/34 87/87/34 86/86/34
f 67/67/34 88/88/34 87/87/34
f 67/67/34 89/89/34 88/88/34
f 67/67/34 90/90/34 89/89/34
f 67/67/34 91/91/34 90/90/34
f 67/67/34 92/92/34 91/91/34
f 67/67/34 93/93/34 92/92/34
f 67/67/34 94/94/34 93/93/34
f 67/67/34 95/95/34 94/94/34
f 67/67/34 96/96/34 95/95/34
f 67/67/34 97/97/34 96/96/34
f 67/67/34 98/98/34 97/97/34
f 67/67/34 99/99/34 98/98/34
f 67/67/34 100/100/34 99/99/34
f 101/101/35 102/102/35 103/103/35
f 101/101/35 103/103/35 104/104/35
f 101/101/35 104/104/35 105/105/35
f 101/101/35 105/105/35 106/106/35
f 101/101/35 106/106/35 107/107/35
f 101/101/35 107/107/35 108/108/35
f 101/101/35 108/108/35 109/109/35
f 101/101/35 109/109/35 110/110/35
f 101/101/35 110/110/35 111/111/35
f 101/101/35 111/111/35 112/112/35
f 101/101/35 112/112/35 113/113/35
f 101/101/35 113/113/35 114/114/35
f 101/101/35 114/114/35 115/115/35
f 101/101/35 115/115/35 116/116/35
f 101/101/35 116/116/35 117/117/35
f 101/101/35 117/117/35 118/118/35
f 101/101/35 118/118/35 119/119/35
f 101/101/35 119/119/35 120/120/35
f 101/101/35 120/120/35 121/121/35
f 101/101/35 121/121/35 122/122/35
f 101/101/35 122/122/35 123/123/35
f 101/101/35 123/123/35 124/124/35
f 101/101/35 124/124/35 125/125/35
f 101/101/35 125/125/35 126/126/35
f 101/101/35 126/126/35 127/127/35
f 101/101/35 127/127/35 128/128/35
f 101/101/35 128/128/35 129/129/35
f 101/101/35 129/129/35 130/130/35
f 101/101/35 130/130/35 131/131/35
f 101/101/35 131/131/35 132/132/35
f 101/101/35 132/132/35 133/133/35
f 101/101/35 133/133/35 134/134/35
