o capsule
v 0.000000 1.000000 0.000000
v 0.000000 1.000000 0.000000
v 0.000000 1.000000 0.000000
v 0.000000 1.000000 0.000000
v 0.000000 1.000000 0.000000
v 0.000000 1.000000 0.000000
v 0.000000 1.000000 0.000000
v 0.000000 1.000000 0.000000
v 0.000000 1.000000 0.000000
v 0.000000 1.000000 0.000000
v 0.000000 1.000000 0.000000
v 0.000000 1.000000 0.000000
v 0.000000 1.000000 0.000000
v 0.000000 1.000000 0.000000
v 0.000000 1.000000 0.000000
v 0.000000 1.000000 0.000000
v 0.000000 1.000000 0.000000
v 0.000000 1.000000 0.000000
v 0.000000 1.000000 0.000000
v 0.000000 1.000000 0.000000
v 0.000000 1.000000 0.000000
v 0.000000 1.000000 0.000000
v 0.000000 1.000000 0.000000
v 0.000000 1.000000 0.000000
v 0.000000 1.000000 0.000000
v 0.000000 1.000000 0.000000
v 0.000000 1.000000 0.000000
v 0.000000 1.000000 0.000000
v 0.000000 1.000000 0.000000
v 0.000000 1.000000 0.000000
v 0.000000 1.000000 0.000000
v 0.000000 1.000000 0.000000
v 0.000000 1.000000 0.000000
v 0.097545 0.990393 0.000000
v 0.095671 0.990393 0.019030
v 0.090120 0.990393 0.037329
v 0.081106 0.990393 0.054193
v 0.068975 0.990393 0.068975
v 0.054193 0.990393 0.081106
v 0.037329 0.990393 0.090120
v 0.019030 0.990393 0.095671
v 0.000000 0.990393 0.097545
v -0.019030 0.990393 0.095671
v -0.037329 0.990393 0.090120
v -0.054193 0.990393 0.081106
v -0.068975 0.990393 0.068975
v -0.081106 0.990393 0.054193
v -0.090120 0.990393 0.037329
v -0.095671 0.990393 0.019030
v -0.097545 0.990393 0.000000
v -0.095671 0.990393 -0.019030
v -0.090120 0.990393 -0.037329
v -0.081106 0.990393 -0.054193
v -0.068975 0.990393 -0.068975
v -0.054193 0.990393 -0.081106
v -0.037329 0.990393 -0.090120
v -0.019030 0.990393 -0.095671
v 0.000000 0.990393 -0.097545
v 0.019030 0.990393 -0.095671
v 0.037329 0.990393 -0.090120
v 0.054193 0.990393 -0.081106
v 0.068975 0.990393 -0.068975
v 0.081106 0.990393 -0.054193
v 0.090120 0.990393 -0.037329
v 0.095671 0.990393 -0.019030
v 0.097545 0.990393 0.000000
v 0.191342 0.961940 0.000000
v 0.187665 0.961940 0.037329
v 0.176777 0.961940 0.073223
v 0.159095 0.961940 0.106304
v 0.135299 0.961940 0.135299
v 0.106304 0.961940 0.159095
v 0.073223 0.961940 0.176777
v 0.037329 0.961940 0.187665
v 0.000000 0.961940 0.191342
v -0.037329 0.961940 0.187665
v -0.073223 0.961940 0.176777
v -0.106304 0.961940 0.159095
v -0.135299 0.961940 0.135299
v -0.159095 0.961940 0.106304
v -0.176777 0.961940 0.073223
v -0.187665 0.961940 0.037329
v -0.191342 0.961940 0.000000
v -0.187665 0.961940 -0.037329
v -0.176777 0.961940 -0.073223
v -0.159095 0.961940 -0.106304
v -0.135299 0.961940 -0.135299
v -0.106304 0.961940 -0.159095
v -0.073223 0.961940 -0.176777
v -0.037329 0.961940 -0.187665
v 0.000000 0.961940 -0.191342
v 0.037329 0.961940 -0.187665
v 0.073223 0.961940 -0.176777
v 0.106304 0.961940 -0.159095
v 0.135299 0.961940 -0.135299
v 0.159095 0.961940 -0.106304
v 0.176777 0.961940 -0.073223
v 0.187665 0.961940 -0.037329
v 0.191342 0.961940 0.000000
v 0.277785 0.915735 0.000000
v 0.272448 0.915735 0.054193
v 0.256640 0.915735 0.106304
v 0.230970 0.915735 0.154329
v 0.196424 0.915735 0.196424
v 0.154329 0.915735 0.230970
v 0.106304 0.915735 0.256640
v 0.054193 0.915735 0.272448
v 0.000000 0.915735 0.277785
v -0.054193 0.915735 0.272448
v -0.106304 0.915735 0.256640
v -0.154329 0.915735 0.230970
v -0.196424 0.915735 0.196424
v -0.230970 0.915735 0.154329
v -0.256640 0.915735 0.106304
v -0.272448 0.915735 0.054193
v -0.277785 0.915735 0.000000
v -0.272448 0.915735 -0.054193
v -0.256640 0.915735 -0.106304
v -0.230970 0.915735 -0.154329
v -0.196424 0.915735 -0.196424
v -0.154329 0.915735 -0.230970
v -0.106304 0.915735 -0.256640
v -0.054193 0.915735 -0.272448
v 0.000000 0.915735 -0.277785
v 0.054193 0.915735 -0.272448
v 0.106304 0.915735 -0.256640
v 0.154329 0.915735 -0.230970
v 0.196424 0.915735 -0.196424
v 0.230970 0.915735 -0.154329
v 0.256640 0.915735 -0.106304
v 0.272448 0.915735 -0.054193
v 0.277785 0.915735 0.000000
v 0.353553 0.853553 0.000000
v 0.346760 0.853553 0.068975
v 0.326641 0.853553 0.135299
v 0.293969 0.853553 0.196424
v 0.250000 0.853553 0.250000
v 0.196424 0.853553 0.293969
v 0.135299 0.853553 0.326641
v 0.068975 0.853553 0.346760
v 0.000000 0.853553 0.353553
v -0.068975 0.853553 0.346760
v -0.135299 0.853553 0.326641
v -0.196424 0.853553 0.293969
v -0.250000 0.853553 0.250000
v -0.293969 0.853553 0.196424
v -0.326641 0.853553 0.135299
v -0.346760 0.853553 0.068975
v -0.353553 0.853553 0.000000
v -0.346760 0.853553 -0.068975
v -0.326641 0.853553 -0.135299
v -0.293969 0.853553 -0.196424
v -0.250000 0.853553 -0.250000
v -0.196424 0.853553 -0.293969
v -0.135299 0.853553 -0.326641
v -0.068975 0.853553 -0.346760
v 0.000000 0.853553 -0.353553
v 0.068975 0.853553 -0.346760
v 0.135299 0.853553 -0.326641
v 0.196424 0.853553 -0.293969
v 0.250000 0.853553 -0.250000
v 0.293969 0.853553 -0.196424
v 0.326641 0.853553 -0.135299
v 0.346760 0.853553 -0.068975
v 0.353553 0.853553 0.000000
v 0.415735 0.777785 0.000000
v 0.407747 0.777785 0.081106
v 0.384089 0.777785 0.159095
v 0.345671 0.777785 0.230970
v 0.293969 0.777785 0.293969
v 0.230970 0.777785 0.345671
v 0.159095 0.777785 0.384089
v 0.081106 0.777785 0.407747
v 0.000000 0.777785 0.415735
v -0.081106 0.777785 0.407747
v -0.159095 0.777785 0.384089
v -0.230970 0.777785 0.345671
v -0.293969 0.777785 0.293969
v -0.345671 0.777785 0.230970
v -0.384089 0.777785 0.159095
v -0.407747 0.777785 0.081106
v -0.415735 0.777785 0.000000
v -0.407747 0.777785 -0.081106
v -0.384089 0.777785 -0.159095
v -0.345671 0.777785 -0.230970
v -0.293969 0.777785 -0.293969
v -0.230970 0.777785 -0.345671
v -0.159095 0.777785 -0.384089
v -0.081106 0.777785 -0.407747
v 0.000000 0.777785 -0.415735
v 0.081106 0.777785 -0.407747
v 0.159095 0.777785 -0.384089
v 0.230970 0.777785 -0.345671
v 0.293969 0.777785 -0.293969
v 0.345671 0.777785 -0.230970
v 0.384089 0.777785 -0.159095
v 0.407747 0.777785 -0.081106
v 0.415735 0.777785 0.000000
v 0.461940 0.691342 0.000000
v 0.453064 0.691342 0.090120
v 0.426777 0.691342 0.176777
v 0.384089 0.691342 0.256640
v 0.326641 0.691342 0.326641
v 0.256640 0.691342 0.384089
v 0.176777 0.691342 0.426777
v 0.090120 0.691342 0.453064
v 0.000000 0.691342 0.461940
v -0.090120 0.691342 0.453064
v -0.176777 0.691342 0.426777
v -0.256640 0.691342 0.384089
v -0.326641 0.691342 0.326641
v -0.384089 0.691342 0.256640
v -0.426777 0.691342 0.176777
v -0.453064 0.691342 0.090120
v -0.461940 0.691342 0.000000
v -0.453064 0.691342 -0.090120
v -0.426777 0.691342 -0.176777
v -0.384089 0.691342 -0.256640
v -0.326641 0.691342 -0.326641
v -0.256640 0.691342 -0.384089
v -0.176777 0.691342 -0.426777
v -0.090120 0.691342 -0.453064
v 0.000000 0.691342 -0.461940
v 0.090120 0.691342 -0.453064
v 0.176777 0.691342 -0.426777
v 0.256640 0.691342 -0.384089
v 0.326641 0.691342 -0.326641
v 0.384089 0.691342 -0.256640
v 0.426777 0.691342 -0.176777
v 0.453064 0.691342 -0.090120
v 0.461940 0.691342 0.000000
v 0.490393 0.597545 0.000000
v 0.480970 0.597545 0.095671
v 0.453064 0.597545 0.187665
v 0.407747 0.597545 0.272448
v 0.346760 0.597545 0.346760
v 0.272448 0.597545 0.407747
v 0.187665 0.597545 0.453064
v 0.095671 0.597545 0.480970
v 0.000000 0.597545 0.490393
v -0.095671 0.597545 0.480970
v -0.187665 0.597545 0.453064
v -0.272448 0.597545 0.407747
v -0.346760 0.597545 0.346760
v -0.407747 0.597545 0.272448
v -0.453064 0.597545 0.187665
v -0.480970 0.597545 0.095671
v -0.490393 0.597545 0.000000
v -0.480970 0.597545 -0.095671
v -0.453064 0.597545 -0.187665
v -0.407747 0.597545 -0.272448
v -0.346760 0.597545 -0.346760
v -0.272448 0.597545 -0.407747
v -0.187665 0.597545 -0.453064
v -0.095671 0.597545 -0.480970
v 0.000000 0.597545 -0.490393
v 0.095671 0.597545 -0.480970
v 0.187665 0.597545 -0.453064
v 0.272448 0.597545 -0.407747
v 0.346760 0.597545 -0.346760
v 0.407747 0.597545 -0.272448
v 0.453064 0.597545 -0.187665
v 0.480970 0.597545 -0.095671
v 0.490393 0.597545 0.000000
v 0.500000 0.500000 0.000000
v 0.490393 0.500000 0.097545
v 0.461940 0.500000 0.191342
v 0.415735 0.500000 0.277785
v 0.353553 0.500000 0.353553
v 0.277785 0.500000 0.415735
v 0.191342 0.500000 0.461940
v 0.097545 0.500000 0.490393
v 0.000000 0.500000 0.500000
v -0.097545 0.500000 0.490393
v -0.191342 0.500000 0.461940
v -0.277785 0.500000 0.415735
v -0.353553 0.500000 0.353553
v -0.415735 0.500000 0.277785
v -0.461940 0.500000 0.191342
v -0.490393 0.500000 0.097545
v -0.500000 0.500000 0.000000
v -0.490393 0.500000 -0.097545
v -0.461940 0.500000 -0.191342
v -0.415735 0.500000 -0.277785
v -0.353553 0.500000 -0.353553
v -0.277785 0.500000 -0.415735
v -0.191342 0.500000 -0.461940
v -0.097545 0.500000 -0.490393
v 0.000000 0.500000 -0.500000
v 0.097545 0.500000 -0.490393
v 0.191342 0.500000 -0.461940
v 0.277785 0.500000 -0.415735
v 0.353553 0.500000 -0.353553
v 0.415735 0.500000 -0.277785
v 0.461940 0.500000 -0.191342
v 0.490393 0.500000 -0.097545
v 0.500000 0.500000 0.000000
v 0.500000 -0.500000 0.000000
v 0.490393 -0.500000 0.097545
v 0.461940 -0.500000 0.191342
v 0.415735 -0.500000 0.277785
v 0.353553 -0.500000 0.353553
v 0.277785 -0.500000 0.415735
v 0.191342 -0.500000 0.461940
v 0.097545 -0.500000 0.490393
v 0.000000 -0.500000 0.500000
v -0.097545 -0.500000 0.490393
v -0.191342 -0.500000 0.461940
v -0.277785 -0.500000 0.415735
v -0.353553 -0.500000 0.353553
v -0.415735 -0.500000 0.277785
v -0.461940 -0.500000 0.191342
v -0.490393 -0.500000 0.097545
v -0.500000 -0.500000 0.000000
v -0.490393 -0.500000 -0.097545
v -0.461940 -0.500000 -0.191342
v -0.415735 -0.500000 -0.277785
v -0.353553 -0.500000 -0.353553
v -0.277785 -0.500000 -0.415735
v -0.191342 -0.500000 -0.461940
v -0.097545 -0.500000 -0.490393
v 0.000000 -0.500000 -0.500000
v 0.097545 -0.500000 -0.490393
v 0.191342 -0.500000 -0.461940
v 0.277785 -0.500000 -0.415735
v 0.353553 -0.500000 -0.353553
v 0.415735 -0.500000 -0.277785
v 0.461940 -0.500000 -0.191342
v 0.490393 -0.500000 -0.097545
v 0.500000 -0.500000 0.000000
v 0.490393 -0.597545 0.000000
v 0.480970 -0.597545 0.095671
v 0.453064 -0.597545 0.187665
v 0.407747 -0.597545 0.272448
v 0.346760 -0.597545 0.346760
v 0.272448 -0.597545 0.407747
v 0.187665 -0.597545 0.453064
v 0.095671 -0.597545 0.480970
v 0.000000 -0.597545 0.490393
v -0.095671 -0.597545 0.480970
v -0.187665 -0.597545 0.453064
v -0.272448 -0.597545 0.407747
v -0.346760 -0.597545 0.346760
v -0.407747 -0.597545 0.272448
v -0.453064 -0.597545 0.187665
v -0.480970 -0.597545 0.095671
v -0.490393 -0.597545 0.000000
v -0.480970 -0.597545 -0.095671
v -0.453064 -0.597545 -0.187665
v -0.407747 -0.597545 -0.272448
v -0.346760 -0.597545 -0.346760
v -0.272448 -0.597545 -0.407747
v -0.187665 -0.597545 -0.453064
v -0.095671 -0.597545 -0.480970
v 0.000000 -0.597545 -0.490393
v 0.095671 -0.597545 -0.480970
v 0.187665 -0.597545 -0.453064
v 0.272448 -0.597545 -0.407747
v 0.346760 -0.597545 -0.346760
v 0.407747 -0.597545 -0.272448
v 0.453064 -0.597545 -0.187665
v 0.480970 -0.597545 -0.095671
v 0.490393 -0.597545 0.000000
v 0.461940 -0.691342 0.000000
v 0.453064 -0.691342 0.090120
v 0.426777 -0.691342 0.176777
v 0.384089 -0.691342 0.256640
v 0.326641 -0.691342 0.326641
v 0.256640 -0.691342 0.384089
v 0.176777 -0.691342 0.426777
v 0.090120 -0.691342 0.453064
v 0.000000 -0.691342 0.461940
v -0.090120 -0.691342 0.453064
v -0.176777 -0.691342 0.426777
v -0.256640 -0.691342 0.384089
v -0.326641 -0.691342 0.326641
v -0.384089 -0.691342 0.256640
v -0.426777 -0.691342 0.176777
v -0.453064 -0.691342 0.090120
v -0.461940 -0.691342 0.000000
v -0.453064 -0.691342 -0.090120
v -0.426777 -0.691342 -0.176777
v -0.384089 -0.691342 -0.256640
v -0.326641 -0.691342 -0.326641
v -0.256640 -0.691342 -0.384089
v -0.176777 -0.691342 -0.426777
v -0.090120 -0.691342 -0.453064
v 0.000000 -0.691342 -0.461940
v 0.090120 -0.691342 -0.453064
v 0.176777 -0.691342 -0.426777
v 0.256640 -0.691342 -0.384089
v 0.326641 -0.691342 -0.326641
v 0.384089 -0.691342 -0.256640
v 0.426777 -0.691342 -0.176777
v 0.453064 -0.691342 -0.090120
v 0.461940 -0.691342 0.000000
v 0.415735 -0.777785 0.000000
v 0.407747 -0.777785 0.081106
v 0.384089 -0.777785 0.159095
v 0.345671 -0.777785 0.230970
v 0.293969 -0.777785 0.293969
v 0.230970 -0.777785 0.345671
v 0.159095 -0.777785 0.384089
v 0.081106 -0.777785 0.407747
v 0.000000 -0.777785 0.415735
v -0.081106 -0.777785 0.407747
v -0.159095 -0.777785 0.384089
v -0.230970 -0.777785 0.345671
v -0.293969 -0.777785 0.293969
v -0.345671 -0.777785 0.230970
v -0.384089 -0.777785 0.159095
v -0.407747 -0.777785 0.081106
v -0.415735 -0.777785 0.000000
v -0.407747 -0.777785 -0.081106
v -0.384089 -0.777785 -0.159095
v -0.345671 -0.777785 -0.230970
v -0.293969 -0.777785 -0.293969
v -0.230970 -0.777785 -0.345671
v -0.159095 -0.777785 -0.384089
v -0.081106 -0.777785 -0.407747
v 0.000000 -0.777785 -0.415735
v 0.081106 -0.777785 -0.407747
v 0.159095 -0.777785 -0.384089
v 0.230970 -0.777785 -0.345671
v 0.293969 -0.777785 -0.293969
v 0.345671 -0.777785 -0.230970
v 0.384089 -0.777785 -0.159095
v 0.407747 -0.777785 -0.081106
v 0.415735 -0.777785 0.000000
v 0.353553 -0.853553 0.000000
v 0.346760 -0.853553 0.068975
v 0.326641 -0.853553 0.135299
v 0.293969 -0.853553 0.196424
v 0.250000 -0.853553 0.250000
v 0.196424 -0.853553 0.293969
v 0.135299 -0.853553 0.326641
v 0.068975 -0.853553 0.346760
v 0.000000 -0.853553 0.353553
v -0.068975 -0.853553 0.346760
v -0.135299 -0.853553 0.326641
v -0.196424 -0.853553 0.293969
v -0.250000 -0.853553 0.250000
v -0.293969 -0.853553 0.196424
v -0.326641 -0.853553 0.135299
v -0.346760 -0.853553 0.068975
v -0.353553 -0.853553 0.000000
v -0.346760 -0.853553 -0.068975
v -0.326641 -0.853553 -0.135299
v -0.293969 -0.853553 -0.196424
v -0.250000 -0.853553 -0.250000
v -0.196424 -0.853553 -0.293969
v -0.135299 -0.853553 -0.326641
v -0.068975 -0.853553 -0.346760
v 0.000000 -0.853553 -0.353553
v 0.068975 -0.853553 -0.346760
v 0.135299 -0.853553 -0.326641
v 0.196424 -0.853553 -0.293969
v 0.250000 -0.853553 -0.250000
v 0.293969 -0.853553 -0.196424
v 0.326641 -0.853553 -0.135299
v 0.346760 -0.853553 -0.068975
v 0.353553 -0.853553 0.000000
v 0.277785 -0.915735 0.000000
v 0.272448 -0.915735 0.054193
v 0.256640 -0.915735 0.106304
v 0.230970 -0.915735 0.154329
v 0.196424 -0.915735 0.196424
v 0.154329 -0.915735 0.230970
v 0.106304 -0.915735 0.256640
v 0.054193 -0.915735 0.272448
v 0.000000 -0.915735 0.277785
v -0.054193 -0.915735 0.272448
v -0.106304 -0.915735 0.256640
v -0.154329 -0.915735 0.230970
v -0.196424 -0.915735 0.196424
v -0.230970 -0.915735 0.154329
v -0.256640 -0.915735 0.106304
v -0.272448 -0.915735 0.054193
v -0.277785 -0.915735 0.000000
v -0.272448 -0.915735 -0.054193
v -0.256640 -0.915735 -0.106304
v -0.230970 -0.915735 -0.154329
v -0.196424 -0.915735 -0.196424
v -0.154329 -0.915735 -0.230970
v -0.106304 -0.915735 -0.256640
v -0.054193 -0.915735 -0.272448
v 0.000000 -0.915735 -0.277785
v 0.054193 -0.915735 -0.272448
v 0.106304 -0.915735 -0.256640
v 0.154329 -0.915735 -0.230970
v 0.196424 -0.915735 -0.196424
v 0.230970 -0.915735 -0.154329
v 0.256640 -0.915735 -0.106304
v 0.272448 -0.915735 -0.054193
v 0.277785 -0.915735 0.000000
v 0.191342 -0.961940 0.000000
v 0.187665 -0.961940 0.037329
v 0.176777 -0.961940 0.073223
v 0.159095 -0.961940 0.106304
v 0.135299 -0.961940 0.135299
v 0.106304 -0.961940 0.159095
v 0.073223 -0.961940 0.176777
v 0.037329 -0.961940 0.187665
v 0.000000 -0.961940 0.191342
v -0.037329 -0.961940 0.187665
v -0.073223 -0.961940 0.176777
v -0.106304 -0.961940 0.159095
v -0.135299 -0.961940 0.135299
v -0.159095 -0.961940 0.106304
v -0.176777 -0.961940 0.073223
v -0.187665 -0.961940 0.037329
v -0.191342 -0.961940 0.000000
v -0.187665 -0.961940 -0.037329
v -0.176777 -0.961940 -0.073223
v -0.159095 -0.961940 -0.106304
v -0.135299 -0.961940 -0.135299
v -0.106304 -0.961940 -0.159095
v -0.073223 -0.961940 -0.176777
v -0.037329 -0.961940 -0.187665
v 0.000000 -0.961940 -0.191342
v 0.037329 -0.961940 -0.187665
v 0.073223 -0.961940 -0.176777
v 0.106304 -0.961940 -0.159095
v 0.135299 -0.961940 -0.135299
v 0.159095 -0.961940 -0.106304
v 0.176777 -0.961940 -0.073223
v 0.187665 -0.961940 -0.037329
v 0.191342 -0.961940 0.000000
v 0.097545 -0.990393 0.000000
v 0.095671 -0.990393 0.019030
v 0.090120 -0.990393 0.037329
v 0.081106 -0.990393 0.054193
v 0.068975 -0.990393 0.068975
v 0.054193 -0.990393 0.081106
v 0.037329 -0.990393 0.090120
v 0.019030 -0.990393 0.095671
v 0.000000 -0.990393 0.097545
v -0.019030 -0.990393 0.095671
v -0.037329 -0.990393 0.090120
v -0.054193 -0.990393 0.081106
v -0.068975 -0.990393 0.068975
v -0.081106 -0.990393 0.054193
v -0.090120 -0.990393 0.037329
v -0.095671 -0.990393 0.019030
v -0.097545 -0.990393 0.000000
v -0.095671 -0.990393 -0.019030
v -0.090120 -0.990393 -0.037329
v -0.081106 -0.990393 -0.054193
v -0.068975 -0.990393 -0.068975
v -0.054193 -0.990393 -0.081106
v -0.037329 -0.990393 -0.090120
v -0.019030 -0.990393 -0.095671
v 0.000000 -0.990393 -0.097545
v 0.019030 -0.990393 -0.095671
v 0.037329 -0.990393 -0.090120
v 0.054193 -0.990393 -0.081106
v 0.068975 -0.990393 -0.068975
v 0.081106 -0.990393 -0.054193
v 0.090120 -0.990393 -0.037329
v 0.095671 -0.990393 -0.019030
v 0.097545 -0.990393 0.000000
v 0.000000 -1.000000 0.000000
v 0.000000 -1.000000 0.000000
v 0.000000 -1.000000 0.000000
v 0.000000 -1.000000 0.000000
v 0.000000 -1.000000 0.000000
v 0.000000 -1.000000 0.000000
v 0.000000 -1.000000 0.000000
v 0.000000 -1.000000 0.000000
v 0.000000 -1.000000 0.000000
v 0.000000 -1.000000 0.000000
v 0.000000 -1.000000 0.000000
v 0.000000 -1.000000 0.000000
v 0.000000 -1.000000 0.000000
v 0.000000 -1.000000 0.000000
v 0.000000 -1.000000 0.000000
v 0.000000 -1.000000 0.000000
v 0.000000 -1.000000 0.000000
v 0.000000 -1.000000 0.000000
v 0.000000 -1.000000 0.000000
v 0.000000 -1.000000 0.000000
v 0.000000 -1.000000 0.000000
v 0.000000 -1.000000 0.000000
v 0.000000 -1.000000 0.000000
v 0.000000 -1.000000 0.000000
v 0.000000 -1.000000 0.000000
v 0.000000 -1.000000 0.000000
v 0.000000 -1.000000 0.000000
v 0.000000 -1.000000 0.000000
v 0.000000 -1.000000 0.000000
v 0.000000 -1.000000 0.000000
v 0.000000 -1.000000 0.000000
v 0.000000 -1.000000 0.000000
v 0.000000 -1.000000 0.000000
vt 0.000000 1.000000
vt 0.031250 1.000000
vt 0.062500 1.000000
vt 0.093750 1.000000
vt 0.125000 1.000000
vt 0.156250 1.000000
vt 0.187500 1.000000
vt 0.218750 1.000000
vt 0.250000 1.000000
vt 0.281250 1.000000
vt 0.312500 1.000000
vt 0.343750 1.000000
vt 0.375000 1.000000
vt 0.406250 1.000000
vt 0.437500 1.000000
vt 0.468750 1.000000
vt 0.500000 1.000000
vt 0.531250 1.000000
vt 0.562500 1.000000
vt 0.593750 1.000000
vt 0.625000 1.000000
vt 0.656250 1.000000
vt 0.687500 1.000000
vt 0.718750 1.000000
vt 0.750000 1.000000
vt 0.781250 1.000000
vt 0.812500 1.000000
vt 0.843750 1.000000
vt 0.875000 1.000000
vt 0.906250 1.000000
vt 0.937500 1.000000
vt 0.968750 1.000000
vt 1.000000 1.000000
vt 0.000000 0.961812
vt 0.031250 0.961812
vt 0.062500 0.961812
vt 0.093750 0.961812
vt 0.125000 0.961812
vt 0.156250 0.961812
vt 0.187500 0.961812
vt 0.218750 0.961812
vt 0.250000 0.961812
vt 0.281250 0.961812
vt 0.312500 0.961812
vt 0.343750 0.961812
vt 0.375000 0.961812
vt 0.406250 0.961812
vt 0.437500 0.961812
vt 0.468750 0.961812
vt 0.500000 0.961812
vt 0.531250 0.961812
vt 0.562500 0.961812
vt 0.593750 0.961812
vt 0.625000 0.961812
vt 0.656250 0.961812
vt 0.687500 0.961812
vt 0.718750 0.961812
vt 0.750000 0.961812
vt 0.781250 0.961812
vt 0.812500 0.961812
vt 0.843750 0.961812
vt 0.875000 0.961812
vt 0.906250 0.961812
vt 0.937500 0.961812
vt 0.968750 0.961812
vt 1.000000 0.961812
vt 0.000000 0.923623
vt 0.031250 0.923623
vt 0.062500 0.923623
vt 0.093750 0.923623
vt 0.125000 0.923623
vt 0.156250 0.923623
vt 0.187500 0.923623
vt 0.218750 0.923623
vt 0.250000 0.923623
vt 0.281250 0.923623
vt 0.312500 0.923623
vt 0.343750 0.923623
vt 0.375000 0.923623
vt 0.406250 0.923623
vt 0.437500 0.923623
vt 0.468750 0.923623
vt 0.500000 0.923623
vt 0.531250 0.923623
vt 0.562500 0.923623
vt 0.593750 0.923623
vt 0.625000 0.923623
vt 0.656250 0.923623
vt 0.687500 0.923623
vt 0.718750 0.923623
vt 0.750000 0.923623
vt 0.781250 0.923623
vt 0.812500 0.923623
vt 0.843750 0.923623
vt 0.875000 0.923623
vt 0.906250 0.923623
vt 0.937500 0.923623
vt 0.968750 0.923623
vt 1.000000 0.923623
vt 0.000000 0.885435
vt 0.031250 0.885435
vt 0.062500 0.885435
vt 0.093750 0.885435
vt 0.125000 0.885435
vt 0.156250 0.885435
vt 0.187500 0.885435
vt 0.218750 0.885435
vt 0.250000 0.885435
vt 0.281250 0.885435
vt 0.312500 0.885435
vt 0.343750 0.885435
vt 0.375000 0.885435
vt 0.406250 0.885435
vt 0.437500 0.885435
vt 0.468750 0.885435
vt 0.500000 0.885435
vt 0.531250 0.885435
vt 0.562500 0.885435
vt 0.593750 0.885435
vt 0.625000 0.885435
vt 0.656250 0.885435
vt 0.687500 0.885435
vt 0.718750 0.885435
vt 0.750000 0.885435
vt 0.781250 0.885435
vt 0.812500 0.885435
vt 0.843750 0.885435
vt 0.875000 0.885435
vt 0.906250 0.885435
vt 0.937500 0.885435
vt 0.968750 0.885435
vt 1.000000 0.885435
vt 0.000000 0.847246
vt 0.031250 0.847246
vt 0.062500 0.847246
vt 0.093750 0.847246
vt 0.125000 0.847246
vt 0.156250 0.847246
vt 0.187500 0.847246
vt 0.218750 0.847246
vt 0.250000 0.847246
vt 0.281250 0.847246
vt 0.312500 0.847246
vt 0.343750 0.847246
vt 0.375000 0.847246
vt 0.406250 0.847246
vt 0.437500 0.847246
vt 0.468750 0.847246
vt 0.500000 0.847246
vt 0.531250 0.847246
vt 0.562500 0.847246
vt 0.593750 0.847246
vt 0.625000 0.847246
vt 0.656250 0.847246
vt 0.687500 0.847246
vt 0.718750 0.847246
vt 0.750000 0.847246
vt 0.781250 0.847246
vt 0.812500 0.847246
vt 0.843750 0.847246
vt 0.875000 0.847246
vt 0.906250 0.847246
vt 0.937500 0.847246
vt 0.968750 0.847246
vt 1.000000 0.847246
vt 0.000000 0.809058
vt 0.031250 0.809058
vt 0.062500 0.809058
vt 0.093750 0.809058
vt 0.125000 0.809058
vt 0.156250 0.809058
vt 0.187500 0.809058
vt 0.218750 0.809058
vt 0.250000 0.809058
vt 0.281250 0.809058
vt 0.312500 0.809058
vt 0.343750 0.809058
vt 0.375000 0.809058
vt 0.406250 0.809058
vt 0.437500 0.809058
vt 0.468750 0.809058
vt 0.500000 0.809058
vt 0.531250 0.809058
vt 0.562500 0.809058
vt 0.593750 0.809058
vt 0.625000 0.809058
vt 0.656250 0.809058
vt 0.687500 0.809058
vt 0.718750 0.809058
vt 0.750000 0.809058
vt 0.781250 0.809058
vt 0.812500 0.809058
vt 0.843750 0.809058
vt 0.875000 0.809058
vt 0.906250 0.809058
vt 0.937500 0.809058
vt 0.968750 0.809058
vt 1.000000 0.809058
vt 0.000000 0.770869
vt 0.031250 0.770869
vt 0.062500 0.770869
vt 0.093750 0.770869
vt 0.125000 0.770869
vt 0.156250 0.770869
vt 0.187500 0.770869
vt 0.218750 0.770869
vt 0.250000 0.770869
vt 0.281250 0.770869
vt 0.312500 0.770869
vt 0.343750 0.770869
vt 0.375000 0.770869
vt 0.406250 0.770869
vt 0.437500 0.770869
vt 0.468750 0.770869
vt 0.500000 0.770869
vt 0.531250 0.770869
vt 0.562500 0.770869
vt 0.593750 0.770869
vt 0.625000 0.770869
vt 0.656250 0.770869
vt 0.687500 0.770869
vt 0.718750 0.770869
vt 0.750000 0.770869
vt 0.781250 0.770869
vt 0.812500 0.770869
vt 0.843750 0.770869
vt 0.875000 0.770869
vt 0.906250 0.770869
vt 0.937500 0.770869
vt 0.968750 0.770869
vt 1.000000 0.770869
vt 0.000000 0.732681
vt 0.031250 0.732681
vt 0.062500 0.732681
vt 0.093750 0.732681
vt 0.125000 0.732681
vt 0.156250 0.732681
vt 0.187500 0.732681
vt 0.218750 0.732681
vt 0.250000 0.732681
vt 0.281250 0.732681
vt 0.312500 0.732681
vt 0.343750 0.732681
vt 0.375000 0.732681
vt 0.406250 0.732681
vt 0.437500 0.732681
vt 0.468750 0.732681
vt 0.500000 0.732681
vt 0.531250 0.732681
vt 0.562500 0.732681
vt 0.593750 0.732681
vt 0.625000 0.732681
vt 0.656250 0.732681
vt 0.687500 0.732681
vt 0.718750 0.732681
vt 0.750000 0.732681
vt 0.781250 0.732681
vt 0.812500 0.732681
vt 0.843750 0.732681
vt 0.875000 0.732681
vt 0.906250 0.732681
vt 0.937500 0.732681
vt 0.968750 0.732681
vt 1.000000 0.732681
vt 0.000000 0.694492
vt 0.031250 0.694492
vt 0.062500 0.694492
vt 0.093750 0.694492
vt 0.125000 0.694492
vt 0.156250 0.694492
vt 0.187500 0.694492
vt 0.218750 0.694492
vt 0.250000 0.694492
vt 0.281250 0.694492
vt 0.312500 0.694492
vt 0.343750 0.694492
vt 0.375000 0.694492
vt 0.406250 0.694492
vt 0.437500 0.694492
vt 0.468750 0.694492
vt 0.500000 0.694492
vt 0.531250 0.694492
vt 0.562500 0.694492
vt 0.593750 0.694492
vt 0.625000 0.694492
vt 0.656250 0.694492
vt 0.687500 0.694492
vt 0.718750 0.694492
vt 0.750000 0.694492
vt 0.781250 0.694492
vt 0.812500 0.694492
vt 0.843750 0.694492
vt 0.875000 0.694492
vt 0.906250 0.694492
vt 0.937500 0.694492
vt 0.968750 0.694492
vt 1.000000 0.694492
vt 0.000000 0.305508
vt 0.031250 0.305508
vt 0.062500 0.305508
vt 0.093750 0.305508
vt 0.125000 0.305508
vt 0.156250 0.305508
vt 0.187500 0.305508
vt 0.218750 0.305508
vt 0.250000 0.305508
vt 0.281250 0.305508
vt 0.312500 0.305508
vt 0.343750 0.305508
vt 0.375000 0.305508
vt 0.406250 0.305508
vt 0.437500 0.305508
vt 0.468750 0.305508
vt 0.500000 0.305508
vt 0.531250 0.305508
vt 0.562500 0.305508
vt 0.593750 0.305508
vt 0.625000 0.305508
vt 0.656250 0.305508
vt 0.687500 0.305508
vt 0.718750 0.305508
vt 0.750000 0.305508
vt 0.781250 0.305508
vt 0.812500 0.305508
vt 0.843750 0.305508
vt 0.875000 0.305508
vt 0.906250 0.305508
vt 0.937500 0.305508
vt 0.968750 0.305508
vt 1.000000 0.305508
vt 0.000000 0.267319
vt 0.031250 0.267319
vt 0.062500 0.267319
vt 0.093750 0.267319
vt 0.125000 0.267319
vt 0.156250 0.267319
vt 0.187500 0.267319
vt 0.218750 0.267319
vt 0.250000 0.267319
vt 0.281250 0.267319
vt 0.312500 0.267319
vt 0.343750 0.267319
vt 0.375000 0.267319
vt 0.406250 0.267319
vt 0.437500 0.267319
vt 0.468750 0.267319
vt 0.500000 0.267319
vt 0.531250 0.267319
vt 0.562500 0.267319
vt 0.593750 0.267319
vt 0.625000 0.267319
vt 0.656250 0.267319
vt 0.687500 0.267319
vt 0.718750 0.267319
vt 0.750000 0.267319
vt 0.781250 0.267319
vt 0.812500 0.267319
vt 0.843750 0.267319
vt 0.875000 0.267319
vt 0.906250 0.267319
vt 0.937500 0.267319
vt 0.968750 0.267319
vt 1.000000 0.267319
vt 0.000000 0.229131
vt 0.031250 0.229131
vt 0.062500 0.229131
vt 0.093750 0.229131
vt 0.125000 0.229131
vt 0.156250 0.229131
vt 0.187500 0.229131
vt 0.218750 0.229131
vt 0.250000 0.229131
vt 0.281250 0.229131
vt 0.312500 0.229131
vt 0.343750 0.229131
vt 0.375000 0.229131
vt 0.406250 0.229131
vt 0.437500 0.229131
vt 0.468750 0.229131
vt 0.500000 0.229131
vt 0.531250 0.229131
vt 0.562500 0.229131
vt 0.593750 0.229131
vt 0.625000 0.229131
vt 0.656250 0.229131
vt 0.687500 0.229131
vt 0.718750 0.229131
vt 0.750000 0.229131
vt 0.781250 0.229131
vt 0.812500 0.229131
vt 0.843750 0.229131
vt 0.875000 0.229131
vt 0.906250 0.229131
vt 0.937500 0.229131
vt 0.968750 0.229131
vt 1.000000 0.229131
vt 0.000000 0.190942
vt 0.031250 0.190942
vt 0.062500 0.190942
vt 0.093750 0.190942
vt 0.125000 0.190942
vt 0.156250 0.190942
vt 0.187500 0.190942
vt 0.218750 0.190942
vt 0.250000 0.190942
vt 0.281250 0.190942
vt 0.312500 0.190942
vt 0.343750 0.190942
vt 0.375000 0.190942
vt 0.406250 0.190942
vt 0.437500 0.190942
vt 0.468750 0.190942
vt 0.500000 0.190942
vt 0.531250 0.190942
vt 0.562500 0.190942
vt 0.593750 0.190942
vt 0.625000 0.190942
vt 0.656250 0.190942
vt 0.687500 0.190942
vt 0.718750 0.190942
vt 0.750000 0.190942
vt 0.781250 0.190942
vt 0.812500 0.190942
vt 0.843750 0.190942
vt 0.875000 0.190942
vt 0.906250 0.190942
vt 0.937500 0.190942
vt 0.968750 0.190942
vt 1.000000 0.190942
vt 0.000000 0.152754
vt 0.031250 0.152754
vt 0.062500 0.152754
vt 0.093750 0.152754
vt 0.125000 0.152754
vt 0.156250 0.152754
vt 0.187500 0.152754
vt 0.218750 0.152754
vt 0.250000 0.152754
vt 0.281250 0.152754
vt 0.312500 0.152754
vt 0.343750 0.152754
vt 0.375000 0.152754
vt 0.406250 0.152754
vt 0.437500 0.152754
vt 0.468750 0.152754
vt 0.500000 0.152754
vt 0.531250 0.152754
vt 0.562500 0.152754
vt 0.593750 0.152754
vt 0.625000 0.152754
vt 0.656250 0.152754
vt 0.687500 0.152754
vt 0.718750 0.152754
vt 0.750000 0.152754
vt 0.781250 0.152754
vt 0.812500 0.152754
vt 0.843750 0.152754
vt 0.875000 0.152754
vt 0.906250 0.152754
vt 0.937500 0.152754
vt 0.968750 0.152754
vt 1.000000 0.152754
vt 0.000000 0.114565
vt 0.031250 0.114565
vt 0.062500 0.114565
vt 0.093750 0.114565
vt 0.125000 0.114565
vt 0.156250 0.114565
vt 0.187500 0.114565
vt 0.218750 0.114565
vt 0.250000 0.114565
vt 0.281250 0.114565
vt 0.312500 0.114565
vt 0.343750 0.114565
vt 0.375000 0.114565
vt 0.406250 0.114565
vt 0.437500 0.114565
vt 0.468750 0.114565
vt 0.500000 0.114565
vt 0.531250 0.114565
vt 0.562500 0.114565
vt 0.593750 0.114565
vt 0.625000 0.114565
vt 0.656250 0.114565
vt 0.687500 0.114565
vt 0.718750 0.114565
vt 0.750000 0.114565
vt 0.781250 0.114565
vt 0.812500 0.114565
vt 0.843750 0.114565
vt 0.875000 0.114565
vt 0.906250 0.114565
vt 0.937500 0.114565
vt 0.968750 0.114565
vt 1.000000 0.114565
vt 0.000000 0.076377
vt 0.031250 0.076377
vt 0.062500 0.076377
vt 0.093750 0.076377
vt 0.125000 0.076377
vt 0.156250 0.076377
vt 0.187500 0.076377
vt 0.218750 0.076377
vt 0.250000 0.076377
vt 0.281250 0.076377
vt 0.312500 0.076377
vt 0.343750 0.076377
vt 0.375000 0.076377
vt 0.406250 0.076377
vt 0.437500 0.076377
vt 0.468750 0.076377
vt 0.500000 0.076377
vt 0.531250 0.076377
vt 0.562500 0.076377
vt 0.593750 0.076377
vt 0.625000 0.076377
vt 0.656250 0.076377
vt 0.687500 0.076377
vt 0.718750 0.076377
vt 0.750000 0.076377
vt 0.781250 0.076377
vt 0.812500 0.076377
vt 0.843750 0.076377
vt 0.875000 0.076377
vt 0.906250 0.076377
vt 0.937500 0.076377
vt 0.968750 0.076377
vt 1.000000 0.076377
vt 0.000000 0.038188
vt 0.031250 0.038188
vt 0.062500 0.038188
vt 0.093750 0.038188
vt 0.125000 0.038188
vt 0.156250 0.038188
vt 0.187500 0.038188
vt 0.218750 0.038188
vt 0.250000 0.038188
vt 0.281250 0.038188
vt 0.312500 0.038188
vt 0.343750 0.038188
vt 0.375000 0.038188
vt 0.406250 0.038188
vt 0.437500 0.038188
vt 0.468750 0.038188
vt 0.500000 0.038188
vt 0.531250 0.038188
vt 0.562500 0.038188
vt 0.593750 0.038188
vt 0.625000 0.038188
vt 0.656250 0.038188
vt 0.687500 0.038188
vt 0.718750 0.038188
vt 0.750000 0.038188
vt 0.781250 0.038188
vt 0.812500 0.038188
vt 0.843750 0.038188
vt 0.875000 0.038188
vt 0.906250 0.038188
vt 0.937500 0.038188
vt 0.968750 0.038188
vt 1.000000 0.038188
vt 0.000000 0.000000
vt 0.031250 0.000000
vt 0.062500 0.000000
vt 0.093750 0.000000
vt 0.125000 0.000000
vt 0.156250 0.000000
vt 0.187500 0.000000
vt 0.218750 0.000000
vt 0.250000 0.000000
vt 0.281250 0.000000
vt 0.312500 0.000000
vt 0.343750 0.000000
vt 0.375000 0.000000
vt 0.406250 0.000000
vt 0.437500 0.000000
vt 0.468750 0.000000
vt 0.500000 0.000000
vt 0.531250 0.000000
vt 0.562500 0.000000
vt 0.593750 0.000000
vt 0.625000 0.000000
vt 0.656250 0.000000
vt 0.687500 0.000000
vt 0.718750 0.000000
vt 0.750000 0.000000
vt 0.781250 0.000000
vt 0.812500 0.000000
vt 0.843750 0.000000
vt 0.875000 0.000000
vt 0.906250 0.000000
vt 0.937500 0.000000
vt 0.968750 0.000000
vt 1.000000 0.000000
vn 0.000000 1.000000 0.000000
vn 0.000000 1.000000 0.000000
vn 0.000000 1.000000 0.000000
vn 0.000000 1.000000 0.000000
vn 0.000000 1.000000 0.000000
vn 0.000000 1.000000 0.000000
vn 0.000000 1.000000 0.000000
vn 0.000000 1.000000 0.000000
vn 0.000000 1.000000 0.000000
vn 0.000000 1.000000 0.000000
vn 0.000000 1.000000 0.000000
vn 0.000000 1.000000 0.000000
vn 0.000000 1.000000 0.000000
vn 0.000000 1.000000 0.000000
vn 0.000000 1.000000 0.000000
vn 0.000000 1.000000 0.000000
vn 0.000000 1.000000 0.000000
vn 0.000000 1.000000 0.000000
vn 0.000000 1.000000 0.000000
vn 0.000000 1.000000 0.000000
vn 0.000000 1.000000 0.000000
vn 0.000000 1.000000 0.000000
vn 0.000000 1.000000 0.000000
vn 0.000000 1.000000 0.000000
vn 0.000000 1.000000 0.000000
vn 0.000000 1.000000 0.000000
vn 0.000000 1.000000 0.000000
vn 0.000000 1.000000 0.000000
vn 0.000000 1.000000 0.000000
vn 0.000000 1.000000 0.000000
vn 0.000000 1.000000 0.000000
vn 0.000000 1.000000 0.000000
vn 0.000000 1.000000 0.000000
vn 0.195090 0.980785 0.000000
vn 0.191342 0.980785 0.038060
vn 0.180240 0.980785 0.074658
vn 0.162212 0.980785 0.108386
vn 0.137950 0.980785 0.137950
vn 0.108386 0.980785 0.162212
vn 0.074658 0.980785 0.180240
vn 0.038060 0.980785 0.191342
vn 0.000000 0.980785 0.195090
vn -0.038060 0.980785 0.191342
vn -0.074658 0.980785 0.180240
vn -0.108386 0.980785 0.162212
vn -0.137950 0.980785 0.137950
vn -0.162212 0.980785 0.108386
vn -0.180240 0.980785 0.074658
vn -0.191342 0.980785 0.038060
vn -0.195090 0.980785 0.000000
vn -0.191342 0.980785 -0.038060
vn -0.180240 0.980785 -0.074658
vn -0.162212 0.980785 -0.108386
vn -0.137950 0.980785 -0.137950
vn -0.108386 0.980785 -0.162212
vn -0.074658 0.980785 -0.180240
vn -0.038060 0.980785 -0.191342
vn 0.000000 0.980785 -0.195090
vn 0.038060 0.980785 -0.191342
vn 0.074658 0.980785 -0.180240
vn 0.108386 0.980785 -0.162212
vn 0.137950 0.980785 -0.137950
vn 0.162212 0.980785 -0.108386
vn 0.180240 0.980785 -0.074658
vn 0.191342 0.980785 -0.038060
vn 0.195090 0.980785 0.000000
vn 0.382683 0.923880 0.000000
vn 0.375330 0.923880 0.074658
vn 0.353553 0.923880 0.146447
vn 0.318190 0.923880 0.212608
vn 0.270598 0.923880 0.270598
vn 0.212608 0.923880 0.318190
vn 0.146447 0.923880 0.353553
vn 0.074658 0.923880 0.375330
vn 0.000000 0.923880 0.382683
vn -0.074658 0.923880 0.375330
vn -0.146447 0.923880 0.353553
vn -0.212608 0.923880 0.318190
vn -0.270598 0.923880 0.270598
vn -0.318190 0.923880 0.212608
vn -0.353553 0.923880 0.146447
vn -0.375330 0.923880 0.074658
vn -0.382683 0.923880 0.000000
vn -0.375330 0.923880 -0.074658
vn -0.353553 0.923880 -0.146447
vn -0.318190 0.923880 -0.212608
vn -0.270598 0.923880 -0.270598
vn -0.212608 0.923880 -0.318190
vn -0.146447 0.923880 -0.353553
vn -0.074658 0.923880 -0.375330
vn 0.000000 0.923880 -0.382683
vn 0.074658 0.923880 -0.375330
vn 0.146447 0.923880 -0.353553
vn 0.212608 0.923880 -0.318190
vn 0.270598 0.923880 -0.270598
vn 0.318190 0.923880 -0.212608
vn 0.353553 0.923880 -0.146447
vn 0.375330 0.923880 -0.074658
vn 0.382683 0.923880 0.000000
vn 0.555570 0.831470 0.000000
vn 0.544895 0.831470 0.108386
vn 0.513280 0.831470 0.212608
vn 0.461940 0.831470 0.308658
vn 0.392847 0.831470 0.392847
vn 0.308658 0.831470 0.461940
vn 0.212608 0.831470 0.513280
vn 0.108386 0.831470 0.544895
vn 0.000000 0.831470 0.555570
vn -0.108386 0.831470 0.544895
vn -0.212608 0.831470 0.513280
vn -0.308658 0.831470 0.461940
vn -0.392847 0.831470 0.392847
vn -0.461940 0.831470 0.308658
vn -0.513280 0.831470 0.212608
vn -0.544895 0.831470 0.108386
vn -0.555570 0.831470 0.000000
vn -0.544895 0.831470 -0.108386
vn -0.513280 0.831470 -0.212608
vn -0.461940 0.831470 -0.308658
vn -0.392847 0.831470 -0.392847
vn -0.308658 0.831470 -0.461940
vn -0.212608 0.831470 -0.513280
vn -0.108386 0.831470 -0.544895
vn 0.000000 0.831470 -0.555570
vn 0.108386 0.831470 -0.544895
vn 0.212608 0.831470 -0.513280
vn 0.308658 0.831470 -0.461940
vn 0.392847 0.831470 -0.392847
vn 0.461940 0.831470 -0.308658
vn 0.513280 0.831470 -0.212608
vn 0.544895 0.831470 -0.108386
vn 0.555570 0.831470 0.000000
vn 0.707107 0.707107 0.000000
vn 0.693520 0.707107 0.137950
vn 0.653281 0.707107 0.270598
vn 0.587938 0.707107 0.392847
vn 0.500000 0.707107 0.500000
vn 0.392847 0.707107 0.587938
vn 0.270598 0.707107 0.653281
vn 0.137950 0.707107 0.693520
vn 0.000000 0.707107 0.707107
vn -0.137950 0.707107 0.693520
vn -0.270598 0.707107 0.653281
vn -0.392847 0.707107 0.587938
vn -0.500000 0.707107 0.500000
vn -0.587938 0.707107 0.392847
vn -0.653281 0.707107 0.270598
vn -0.693520 0.707107 0.137950
vn -0.707107 0.707107 0.000000
vn -0.693520 0.707107 -0.137950
vn -0.653281 0.707107 -0.270598
vn -0.587938 0.707107 -0.392847
vn -0.500000 0.707107 -0.500000
vn -0.392847 0.707107 -0.587938
vn -0.270598 0.707107 -0.653281
vn -0.137950 0.707107 -0.693520
vn 0.000000 0.707107 -0.707107
vn 0.137950 0.707107 -0.693520
vn 0.270598 0.707107 -0.653281
vn 0.392847 0.707107 -0.587938
vn 0.500000 0.707107 -0.500000
vn 0.587938 0.707107 -0.392847
vn 0.653281 0.707107 -0.270598
vn 0.693520 0.707107 -0.137950
vn 0.707107 0.707107 0.000000
vn 0.831470 0.555570 0.000000
vn 0.815493 0.555570 0.162212
vn 0.768178 0.555570 0.318190
vn 0.691342 0.555570 0.461940
vn 0.587938 0.555570 0.587938
vn 0.461940 0.555570 0.691342
vn 0.318190 0.555570 0.768178
vn 0.162212 0.555570 0.815493
vn 0.000000 0.555570 0.831470
vn -0.162212 0.555570 0.815493
vn -0.318190 0.555570 0.768178
vn -0.461940 0.555570 0.691342
vn -0.587938 0.555570 0.587938
vn -0.691342 0.555570 0.461940
vn -0.768178 0.555570 0.318190
vn -0.815493 0.555570 0.162212
vn -0.831470 0.555570 0.000000
vn -0.815493 0.555570 -0.162212
vn -0.768178 0.555570 -0.318190
vn -0.691342 0.555570 -0.461940
vn -0.587938 0.555570 -0.587938
vn -0.461940 0.555570 -0.691342
vn -0.318190 0.555570 -0.768178
vn -0.162212 0.555570 -0.815493
vn 0.000000 0.555570 -0.831470
vn 0.162212 0.555570 -0.815493
vn 0.318190 0.555570 -0.768178
vn 0.461940 0.555570 -0.691342
vn 0.587938 0.555570 -0.587938
vn 0.691342 0.555570 -0.461940
vn 0.768178 0.555570 -0.318190
vn 0.815493 0.555570 -0.162212
vn 0.831470 0.555570 0.000000
vn 0.923880 0.382683 0.000000
vn 0.906127 0.382683 0.180240
vn 0.853553 0.382683 0.353553
vn 0.768178 0.382683 0.513280
vn 0.653281 0.382683 0.653281
vn 0.513280 0.382683 0.768178
vn 0.353553 0.382683 0.853553
vn 0.180240 0.382683 0.906127
vn 0.000000 0.382683 0.923880
vn -0.180240 0.382683 0.906127
vn -0.353553 0.382683 0.853553
vn -0.513280 0.382683 0.768178
vn -0.653281 0.382683 0.653281
vn -0.768178 0.382683 0.513280
vn -0.853553 0.382683 0.353553
vn -0.906127 0.382683 0.180240
vn -0.923880 0.382683 0.000000
vn -0.906127 0.382683 -0.180240
vn -0.853553 0.382683 -0.353553
vn -0.768178 0.382683 -0.513280
vn -0.653281 0.382683 -0.653281
vn -0.513280 0.382683 -0.768178
vn -0.353553 0.382683 -0.853553
vn -0.180240 0.382683 -0.906127
vn 0.000000 0.382683 -0.923880
vn 0.180240 0.382683 -0.906127
vn 0.353553 0.382683 -0.853553
vn 0.513280 0.382683 -0.768178
vn 0.653281 0.382683 -0.653281
vn 0.768178 0.382683 -0.513280
vn 0.853553 0.382683 -0.353553
vn 0.906127 0.382683 -0.180240
vn 0.923880 0.382683 0.000000
vn 0.980785 0.195090 0.000000
vn 0.961940 0.195090 0.191342
vn 0.906127 0.195090 0.375330
vn 0.815493 0.195090 0.544895
vn 0.693520 0.195090 0.693520
vn 0.544895 0.195090 0.815493
vn 0.375330 0.195090 0.906127
vn 0.191342 0.195090 0.961940
vn 0.000000 0.195090 0.980785
vn -0.191342 0.195090 0.961940
vn -0.375330 0.195090 0.906127
vn -0.544895 0.195090 0.815493
vn -0.693520 0.195090 0.693520
vn -0.815493 0.195090 0.544895
vn -0.906127 0.195090 0.375330
vn -0.961940 0.195090 0.191342
vn -0.980785 0.195090 0.000000
vn -0.961940 0.195090 -0.191342
vn -0.906127 0.195090 -0.375330
vn -0.815493 0.195090 -0.544895
vn -0.693520 0.195090 -0.693520
vn -0.544895 0.195090 -0.815493
vn -0.375330 0.195090 -0.906127
vn -0.191342 0.195090 -0.961940
vn 0.000000 0.195090 -0.980785
vn 0.191342 0.195090 -0.961940
vn 0.375330 0.195090 -0.906127
vn 0.544895 0.195090 -0.815493
vn 0.693520 0.195090 -0.693520
vn 0.815493 0.195090 -0.544895
vn 0.906127 0.195090 -0.375330
vn 0.961940 0.195090 -0.191342
vn 0.980785 0.195090 0.000000
vn 1.000000 0.000000 0.000000
vn 0.980785 0.000000 0.195090
vn 0.923880 0.000000 0.382683
vn 0.831470 0.000000 0.555570
vn 0.707107 0.000000 0.707107
vn 0.555570 0.000000 0.831470
vn 0.382683 0.000000 0.923880
vn 0.195090 0.000000 0.980785
vn 0.000000 0.000000 1.000000
vn -0.195090 0.000000 0.980785
vn -0.382683 0.000000 0.923880
vn -0.555570 0.000000 0.831470
vn -0.707107 0.000000 0.707107
vn -0.831470 0.000000 0.555570
vn -0.923880 0.000000 0.382683
vn -0.980785 0.000000 0.195090
vn -1.000000 0.000000 0.000000
vn -0.980785 0.000000 -0.195090
vn -0.923880 0.000000 -0.382683
vn -0.831470 0.000000 -0.555570
vn -0.707107 0.000000 -0.707107
vn -0.555570 0.000000 -0.831470
vn -0.382683 0.000000 -0.923880
vn -0.195090 0.000000 -0.980785
vn 0.000000 0.000000 -1.000000
vn 0.195090 0.000000 -0.980785
vn 0.382683 0.000000 -0.923880
vn 0.555570 0.000000 -0.831470
vn 0.707107 0.000000 -0.707107
vn 0.831470 0.000000 -0.555570
vn 0.923880 0.000000 -0.382683
vn 0.980785 0.000000 -0.195090
vn 1.000000 0.000000 0.000000
vn 1.000000 0.000000 0.000000
vn 0.980785 0.000000 0.195090
vn 0.923880 0.000000 0.382683
vn 0.831470 0.000000 0.555570
vn 0.707107 0.000000 0.707107
vn 0.555570 0.000000 0.831470
vn 0.382683 0.000000 0.923880
vn 0.195090 0.000000 0.980785
vn 0.000000 0.000000 1.000000
vn -0.195090 0.000000 0.980785
vn -0.382683 0.000000 0.923880
vn -0.555570 0.000000 0.831470
vn -0.707107 0.000000 0.707107
vn -0.831470 0.000000 0.555570
vn -0.923880 0.000000 0.382683
vn -0.980785 0.000000 0.195090
vn -1.000000 0.000000 0.000000
vn -0.980785 0.000000 -0.195090
vn -0.923880 0.000000 -0.382683
vn -0.831470 0.000000 -0.555570
vn -0.707107 0.000000 -0.707107
vn -0.555570 0.000000 -0.831470
vn -0.382683 0.000000 -0.923880
vn -0.195090 0.000000 -0.980785
vn 0.000000 0.000000 -1.000000
vn 0.195090 0.000000 -0.980785
vn 0.382683 0.000000 -0.923880
vn 0.555570 0.000000 -0.831470
vn 0.707107 0.000000 -0.707107
vn 0.831470 0.000000 -0.555570
vn 0.923880 0.000000 -0.382683
vn 0.980785 0.000000 -0.195090
vn 1.000000 0.000000 0.000000
vn 0.980785 -0.195090 0.000000
vn 0.961940 -0.195090 0.191342
vn 0.906127 -0.195090 0.375330
vn 0.815493 -0.195090 0.544895
vn 0.693520 -0.195090 0.693520
vn 0.544895 -0.195090 0.815493
vn 0.375330 -0.195090 0.906127
vn 0.191342 -0.195090 0.961940
vn 0.000000 -0.195090 0.980785
vn -0.191342 -0.195090 0.961940
vn -0.375330 -0.195090 0.906127
vn -0.544895 -0.195090 0.815493
vn -0.693520 -0.195090 0.693520
vn -0.815493 -0.195090 0.544895
vn -0.906127 -0.195090 0.375330
vn -0.961940 -0.195090 0.191342
vn -0.980785 -0.195090 0.000000
vn -0.961940 -0.195090 -0.191342
vn -0.906127 -0.195090 -0.375330
vn -0.815493 -0.195090 -0.544895
vn -0.693520 -0.195090 -0.693520
vn -0.544895 -0.195090 -0.815493
vn -0.375330 -0.195090 -0.906127
vn -0.191342 -0.195090 -0.961940
vn 0.000000 -0.195090 -0.980785
vn 0.191342 -0.195090 -0.961940
vn 0.375330 -0.195090 -0.906127
vn 0.544895 -0.195090 -0.815493
vn 0.693520 -0.195090 -0.693520
vn 0.815493 -0.195090 -0.544895
vn 0.906127 -0.195090 -0.375330
vn 0.961940 -0.195090 -0.191342
vn 0.980785 -0.195090 0.000000
vn 0.923880 -0.382683 0.000000
vn 0.906127 -0.382683 0.180240
vn 0.853553 -0.382683 0.353553
vn 0.768178 -0.382683 0.513280
vn 0.653281 -0.382683 0.653281
vn 0.513280 -0.382683 0.768178
vn 0.353553 -0.382683 0.853553
vn 0.180240 -0.382683 0.906127
vn 0.000000 -0.382683 0.923880
vn -0.180240 -0.382683 0.906127
vn -0.353553 -0.382683 0.853553
vn -0.513280 -0.382683 0.768178
vn -0.653281 -0.382683 0.653281
vn -0.768178 -0.382683 0.513280
vn -0.853553 -0.382683 0.353553
vn -0.906127 -0.382683 0.180240
vn -0.923880 -0.382683 0.000000
vn -0.906127 -0.382683 -0.180240
vn -0.853553 -0.382683 -0.353553
vn -0.768178 -0.382683 -0.513280
vn -0.653281 -0.382683 -0.653281
vn -0.513280 -0.382683 -0.768178
vn -0.353553 -0.382683 -0.853553
vn -0.180240 -0.382683 -0.906127
vn 0.000000 -0.382683 -0.923880
vn 0.180240 -0.382683 -0.906127
vn 0.353553 -0.382683 -0.853553
vn 0.513280 -0.382683 -0.768178
vn 0.653281 -0.382683 -0.653281
vn 0.768178 -0.382683 -0.513280
vn 0.853553 -0.382683 -0.353553
vn 0.906127 -0.382683 -0.180240
vn 0.923880 -0.382683 0.000000
vn 0.831470 -0.555570 0.000000
vn 0.815493 -0.555570 0.162212
vn 0.768178 -0.555570 0.318190
vn 0.691342 -0.555570 0.461940
vn 0.587938 -0.555570 0.587938
vn 0.461940 -0.555570 0.691342
vn 0.318190 -0.555570 0.768178
vn 0.162212 -0.555570 0.815493
vn 0.000000 -0.555570 0.831470
vn -0.162212 -0.555570 0.815493
vn -0.318190 -0.555570 0.768178
vn -0.461940 -0.555570 0.691342
vn -0.587938 -0.555570 0.587938
vn -0.691342 -0.555570 0.461940
vn -0.768178 -0.555570 0.318190
vn -0.815493 -0.555570 0.162212
vn -0.831470 -0.555570 0.000000
vn -0.815493 -0.555570 -0.162212
vn -0.768178 -0.555570 -0.318190
vn -0.691342 -0.555570 -0.461940
vn -0.587938 -0.555570 -0.587938
vn -0.461940 -0.555570 -0.691342
vn -0.318190 -0.555570 -0.768178
vn -0.162212 -0.555570 -0.815493
vn 0.000000 -0.555570 -0.831470
vn 0.162212 -0.555570 -0.815493
vn 0.318190 -0.555570 -0.768178
vn 0.461940 -0.555570 -0.691342
vn 0.587938 -0.555570 -0.587938
vn 0.691342 -0.555570 -0.461940
vn 0.768178 -0.555570 -0.318190
vn 0.815493 -0.555570 -0.162212
vn 0.831470 -0.555570 0.000000
vn 0.707107 -0.707107 0.000000
vn 0.693520 -0.707107 0.137950
vn 0.653281 -0.707107 0.270598
vn 0.587938 -0.707107 0.392847
vn 0.500000 -0.707107 0.500000
vn 0.392847 -0.707107 0.587938
vn 0.270598 -0.707107 0.653281
vn 0.137950 -0.707107 0.693520
vn 0.000000 -0.707107 0.707107
vn -0.137950 -0.707107 0.693520
vn -0.270598 -0.707107 0.653281
vn -0.392847 -0.707107 0.587938
vn -0.500000 -0.707107 0.500000
vn -0.587938 -0.707107 0.392847
vn -0.653281 -0.707107 0.270598
vn -0.693520 -0.707107 0.137950
vn -0.707107 -0.707107 0.000000
vn -0.693520 -0.707107 -0.137950
vn -0.653281 -0.707107 -0.270598
vn -0.587938 -0.707107 -0.392847
vn -0.500000 -0.707107 -0.500000
vn -0.392847 -0.707107 -0.587938
vn -0.270598 -0.707107 -0.653281
vn -0.137950 -0.707107 -0.693520
vn 0.000000 -0.707107 -0.707107
vn 0.137950 -0.707107 -0.693520
vn 0.270598 -0.707107 -0.653281
vn 0.392847 -0.707107 -0.587938
vn 0.500000 -0.707107 -0.500000
vn 0.587938 -0.707107 -0.392847
vn 0.653281 -0.707107 -0.270598
vn 0.693520 -0.707107 -0.137950
vn 0.707107 -0.707107 0.000000
vn 0.555570 -0.831470 0.000000
vn 0.544895 -0.831470 0.108386
vn 0.513280 -0.831470 0.212608
vn 0.461940 -0.831470 0.308658
vn 0.392847 -0.831470 0.392847
vn 0.308658 -0.831470 0.461940
vn 0.212608 -0.831470 0.513280
vn 0.108386 -0.831470 0.544895
vn 0.000000 -0.831470 0.555570
vn -0.108386 -0.831470 0.544895
vn -0.212608 -0.831470 0.513280
vn -0.308658 -0.831470 0.461940
vn -0.392847 -0.831470 0.392847
vn -0.461940 -0.831470 0.308658
vn -0.513280 -0.831470 0.212608
vn -0.544895 -0.831470 0.108386
vn -0.555570 -0.831470 0.000000
vn -0.544895 -0.831470 -0.108386
vn -0.513280 -0.831470 -0.212608
vn -0.461940 -0.831470 -0.308658
vn -0.392847 -0.831470 -0.392847
vn -0.308658 -0.831470 -0.461940
vn -0.212608 -0.831470 -0.513280
vn -0.108386 -0.831470 -0.544895
vn 0.000000 -0.831470 -0.555570
vn 0.108386 -0.831470 -0.544895
vn 0.212608 -0.831470 -0.513280
vn 0.308658 -0.831470 -0.461940
vn 0.392847 -0.831470 -0.392847
vn 0.461940 -0.831470 -0.308658
vn 0.513280 -0.831470 -0.212608
vn 0.544895 -0.831470 -0.108386
vn 0.555570 -0.831470 0.000000
vn 0.382683 -0.923880 0.000000
vn 0.375330 -0.923880 0.074658
vn 0.353553 -0.923880 0.146447
vn 0.318190 -0.923880 0.212608
vn 0.270598 -0.923880 0.270598
vn 0.212608 -0.923880 0.318190
vn 0.146447 -0.923880 0.353553
vn 0.074658 -0.923880 0.375330
vn 0.000000 -0.923880 0.382683
vn -0.074658 -0.923880 0.375330
vn -0.146447 -0.923880 0.353553
vn -0.212608 -0.923880 0.318190
vn -0.270598 -0.923880 0.270598
vn -0.318190 -0.923880 0.212608
vn -0.353553 -0.923880 0.146447
vn -0.375330 -0.923880 0.074658
vn -0.382683 -0.923880 0.000000
vn -0.375330 -0.923880 -0.074658
vn -0.353553 -0.923880 -0.146447
vn -0.318190 -0.923880 -0.212608
vn -0.270598 -0.923880 -0.270598
vn -0.212608 -0.923880 -0.318190
vn -0.146447 -0.923880 -0.353553
vn -0.074658 -0.923880 -0.375330
vn 0.000000 -0.923880 -0.382683
vn 0.074658 -0.923880 -0.375330
vn 0.146447 -0.923880 -0.353553
vn 0.212608 -0.923880 -0.318190
vn 0.270598 -0.923880 -0.270598
vn 0.318190 -0.923880 -0.212608
vn 0.353553 -0.923880 -0.146447
vn 0.375330 -0.923880 -0.074658
vn 0.382683 -0.923880 0.000000
vn 0.195090 -0.980785 0.000000
vn 0.191342 -0.980785 0.038060
vn 0.180240 -0.980785 0.074658
vn 0.162212 -0.980785 0.108386
vn 0.137950 -0.980785 0.137950
vn 0.108386 -0.980785 0.162212
vn 0.074658 -0.980785 0.180240
vn 0.038060 -0.980785 0.191342
vn 0.000000 -0.980785 0.195090
vn -0.038060 -0.980785 0.191342
vn -0.074658 -0.980785 0.180240
vn -0.108386 -0.980785 0.162212
vn -0.137950 -0.980785 0.137950
vn -0.162212 -0.980785 0.108386
vn -0.180240 -0.980785 0.074658
vn -0.191342 -0.980785 0.038060
vn -0.195090 -0.980785 0.000000
vn -0.191342 -0.980785 -0.038060
vn -0.180240 -0.980785 -0.074658
vn -0.162212 -0.980785 -0.108386
vn -0.137950 -0.980785 -0.137950
vn -0.108386 -0.980785 -0.162212
vn -0.074658 -0.980785 -0.180240
vn -0.038060 -0.980785 -0.191342
vn 0.000000 -0.980785 -0.195090
vn 0.038060 -0.980785 -0.191342
vn 0.074658 -0.980785 -0.180240
vn 0.108386 -0.980785 -0.162212
vn 0.137950 -0.980785 -0.137950
vn 0.162212 -0.980785 -0.108386
vn 0.180240 -0.980785 -0.074658
vn 0.191342 -0.980785 -0.038060
vn 0.195090 -0.980785 0.000000
vn 0.000000 -1.000000 0.000000
vn 0.000000 -1.000000 0.000000
vn 0.000000 -1.000000 0.000000
vn 0.000000 -1.000000 0.000000
vn 0.000000 -1.000000 0.000000
vn 0.000000 -1.000000 0.000000
vn 0.000000 -1.000000 0.000000
vn 0.000000 -1.000000 0.000000
vn 0.000000 -1.000000 0.000000
vn 0.000000 -1.000000 0.000000
vn 0.000000 -1.000000 0.000000
vn 0.000000 -1.000000 0.000000
vn 0.000000 -1.000000 0.000000
vn 0.000000 -1.000000 0.000000
vn 0.000000 -1.000000 0.000000
vn 0.000000 -1.000000 0.000000
vn 0.000000 -1.000000 0.000000
vn 0.000000 -1.000000 0.000000
vn 0.000000 -1.000000 0.000000
vn 0.000000 -1.000000 0.000000
vn 0.000000 -1.000000 0.000000
vn 0.000000 -1.000000 0.000000
vn 0.000000 -1.000000 0.000000
vn 0.000000 -1.000000 0.000000
vn 0.000000 -1.000000 0.000000
vn 0.000000 -1.000000 0.000000
vn 0.000000 -1.000000 0.000000
vn 0.000000 -1.000000 0.000000
vn 0.000000 -1.000000 0.000000
vn 0.000000 -1.000000 0.000000
vn 0.000000 -1.000000 0.000000
vn 0.000000 -1.000000 0.000000
vn 0.000000 -1.000000 0.000000
f 1/1/1 35/35/35 34/34/34
f 2/2/2 36/36/36 35/35/35
f 3/3/3 37/37/37 36/36/36
f 4/4/4 38/38/38 37/37/37
f 5/5/5 39/39/39 38/38/38
f 6/6/6 40/40/40 39/39/39
f 7/7/7 41/41/41 40/40/40
f 8/8/8 42/42/42 41/41/41
f 9/9/9 43/43/43 42/42/42
f 10/10/10 44/44/44 43/43/43
f 11/11/11 45/45/45 44/44/44
f 12/12/12 46/46/46 45/45/45
f 13/13/13 47/47/47 46/46/46
f 14/14/14 48/48/48 47/47/47
f 15/15/15 49/49/49 48/48/48
f 16/16/16 50/50/50 49/49/49
f 17/17/17 51/51/51 50/50/50
f 18/18/18 52/52/52 51/51/51
f 19/19/19 53/53/53 52/52/52
f 20/20/20 54/54/54 53/53/53
f 21/21/21 55/55/55 54/54/54
f 22/22/22 56/56/56 55/55/55
f 23/23/23 57/57/57 56/56/56
f 24/24/24 58/58/58 57/57/57
f 25/25/25 59/59/59 58/58/58
f 26/26/26 60/60/60 59/59/59
f 27/27/27 61/61/61 60/60/60
f 28/28/28 62/62/62 61/61/61
f 29/29/29 63/63/63 62/62/62
f 30/30/30 64/64/64 63/63/63
f 31/31/31 65/65/65 64/64/64
f 32/32/32 66/66/66 65/65/65
f 34/34/34 35/35/35 68/68/68 67/67/67
f 35/35/35 36/36/36 69/69/69 68/68/68
f 36/36/36 37/37/37 70/70/70 69/69/69
f 37/37/37 38/38/38 71/71/71 70/70/70
f 38/38/38 39/39/39 72/72/72 71/71/71
f 39/39/39 40/40/40 73/73/73 72/72/72
f 40/40/40 41/41/41 74/74/74 73/73/73
f 41/41/41 42/42/42 75/75/75 74/74/74
f 42/42/42 43/43/43 76/76/76 75/75/75
f 43/43/43 44/44/44 77/77/77 76/76/76
f 44/44/44 45/45/45 78/78/78 77/77/77
f 45/45/45 46/46/46 79/79/79 78/78/78
f 46/46/46 47/47/47 80/80/80 79/79/79
f 47/47/47 48/48/48 81/81/81 80/80/80
f 48/48/48 49/49/49 82/82/82 81/81/81
f 49/49/49 50/50/50 83/83/83 82/82/82
f 50/50/50 51/51/51 84/84/84 83/83/83
f 51/51/51 52/52/52 85/85/85 84/84/84
f 52/52/52 53/53/53 86/86/86 85/85/85
f 53/53/53 54/54/54 87/87/87 86/86/86
f 54/54/54 55/55/55 88/88/88 87/87/87
f 55/55/55 56/56/56 89/89/89 88/88/88
f 56/56/56 57/57/57 90/90/90 89/89/89
f 57/57/57 58/58/58 91/91/91 90/90/90
f 58/58/58 59/59/59 92/92/92 91/91/91
f 59/59/59 60/60/60 93/93/93 92/92/92
f 60/60/60 61/61/61 94/94/94 93/93/93
f 61/61/61 62/62/62 95/95/95 94/94/94
f 62/62/62 63/63/63 96/96/96 95/95/95
f 63/63/63 64/64/64 97/97/97 96/96/96
f 64/64/64 65/65/65 98/98/98 97/97/97
f 65/65/65 66/66/66 99/99/99 98/98/98
f 67/67/67 68/68/68 101/101/101 100/100/100
f 68/68/68 69/69/69 102/102/102 101/101/101
f 69/69/69 70/70/70 103/103/103 102/102/102
f 70/70/70 71/71/71 104/104/104 103/103/103
f 71/71/71 72/72/72 105/105/105 104/104/104
f 72/72/72 73/73/73 106/106/106 105/105/105
f 73/73/73 74/74/74 107/107/107 106/106/106
f 74/74/74 75/75/75 108/108/108 107/107/107
f 75/75/75 76/76/76 109/109/109 108/108/108
f 76/76/76 77/77/77 110/110/110 109/109/109
f 77/77/77 78/78/78 111/111/111 110/110/110
f 78/78/78 79/79/79 112/112/112 111/111/111
f 79/79/79 80/80/80 113/113/113 112/112/112
f 80/80/80 81/81/81 114/114/114 113/113/113
f 81/81/81 82/82/82 115/115/115 114/114/114
f 82/82/82 83/83/83 116/116/116 115/115/115
f 83/83/83 84/84/84 117/117/117 116/116/116
f 84/84/84 85/85/85 118/118/118 117/117/117
f 85/85/85 86/86/86 119/119/119 118/118/118
f 86/86/86 87/87/87 120/120/120 119/119/119
f 87/87/87 88/88/88 121/121/121 120/120/120
f 88/88/88 89/89/89 122/122/122 121/121/121
f 89/89/89 90/90/90 123/123/123 122/122/122
f 90/90/90 91/91/91 124/124/124 123/123/123
f 91/91/91 92/92/92 125/125/125 124/124/124
f 92/92/92 93/93/93 126/126/126 125/125/125
f 93/93/93 94/94/94 127/127/127 126/126/126
f 94/94/94 95/95/95 128/128/128 127/127/127
f 95/95/95 96/96/96 129/129/129 128/128/128
f 96/96/96 97/97/97 130/130/130 129/129/129
f 97/97/97 98/98/98 131/131/131 130/130/130
f 98/98/98 99/99/99 132/132/132 131/131/131
f 100/100/100 101/101/101 134/134/134 133/133/133
f 101/101/101 102/102/102 135/135/135 134/134/134
f 102/102/102 103/103/103 136/136/136 135/135/135
f 103/103/103 104/104/104 137/137/137 136/136/136
f 104/104/104 105/105/105 138/138/138 137/137/137
f 105/105/105 106/106/106 139/139/139 138/138/138
f 106/106/106 107/107/107 140/140/140 139/139/139
f 107/107/107 108/108/108 141/141/141 140/140/140
f 108/108/108 109/109/109 142/142/142 141/141/141
f 109/109/109 110/110/110 143/143/143 142/142/142
f 110/110/110 111/111/111 144/144/144 143/143/143
f 111/111/111 112/112/112 145/145/145 144/144/144
f 112/112/112 113/113/113 146/146/146 145/145/145
f 113/113/113 114/114/114 147/147/147 146/146/146
f 114/114/114 115/115/115 148/148/148 147/147/147
f 115/115/115 116/116/116 149/149/149 148/148/148
f 116/116/116 117/117/117 150/150/150 149/149/149
f 117/117/117 118/118/118 151/151/151 150/150/150
f 118/118/118 119/119/119 152/152/152 151/151/151
f 119/119/119 120/120/120 153/153/153 152/152/152
f 120/120/120 121/121/121 154/154/154 153/153/153
f 121/121/121 122/122/122 155/155/155 154/154/154
f 122/122/122 123/123/123 156/156/156 155/155/155
f 123/123/123 124/124/124 157/157/157 156/156/156
f 124/124/124 125/125/125 158/158/158 157/157/157
f 125/125/125 126/126/126 159/159/159 158/158/158
f 126/126/126 127/127/127 160/160/160 159/159/159
f 127/127/127 128/128/128 161/161/161 160/160/160
f 128/128/128 129/129/129 162/162/162 161/161/161
f 129/129/129 130/130/130 163/163/163 162/162/162
f 130/130/130 131/131/131 164/164/164 163/163/163
f 131/131/131 132/132/132 165/165/165 164/164/164
f 133/133/133 134/134/134 167/167/167 166/166/166
f 134/134/134 135/135/135 168/168/168 167/167/167
f 135/135/135 136/136/136 169/169/169 168/168/168
f 136/136/136 137/137/137 170/170/170 169/169/169
f 137/137/137 138/138/138 171/171/171 170/170/170
f 138/138/138 139/139/139 172/172/172 171/171/171
f 139/139/139 140/140/140 173/173/173 172/172/172
f 140/140/140 141/141/141 174/174/174 173/173/173
f 141/141/141 142/142/142 175/175/175 174/174/174
f 142/142/142 143/143/143 176/176/176 175/175/175
f 143/143/143 144/144/144 177/177/177 176/176/176
f 144/144/144 145/145/145 178/178/178 177/177/177
f 145/145/145 146/146/146 179/179/179 178/178/178
f 146/146/146 147/147/147 180/180/180 179/179/179
f 147/147/147 148/148/148 181/181/181 180/180/180
f 148/148/148 149/149/149 182/182/182 181/181/181
f 149/149/149 150/150/150 183/183/183 182/182/182
f 150/150/150 151/151/151 184/184/184 183/183/183
f 151/151/151 152/152/152 185/185/185 184/184/184
f 152/152/152 153/153/153 186/186/186 185/185/185
f 153/153/153 154/154/154 187/187/187 186/186/186
f 154/154/154 155/155/155 188/188/188 187/187/187
f 155/155/155 156/156/156 189/189/189 188/188/188
f 156/156/156 157/157/157 190/190/190 189/189/189
f 157/157/157 158/158/158 191/191/191 190/190/190
f 158/158/158 159/159/159 192/192/192 191/191/191
f 159/159/159 160/160/160 193/193/193 192/192/192
f 160/160/160 161/161/161 194/194/194 193/193/193
f 161/161/161 162/162/162 195/195/195 194/194/194
f 162/162/162 163/163/163 196/196/196 195/195/195
f 163/163/163 164/164/164 197/197/197 196/196/196
f 164/164/164 165/165/165 198/198/198 197/197/197
f 166/166/166 167/167/167 200/200/200 199/199/199
f 167/167/167 168/168/168 201/201/201 200/200/200
f 168/168/168 169/169/169 202/202/202 201/201/201
f 169/169/169 170/170/170 203/203/203 202/202/202
f 170/170/170 171/171/171 204/204/204 203/203/203
f 171/171/171 172/172/172 205/205/205 204/204/204
f 172/172/172 173/173/173 206/206/206 205/205/205
f 173/173/173 174/174/174 207/207/207 206/206/206
f 174/174/174 175/175/175 208/208/208 207/207/207
f 175/175/175 176/176/176 209/209/209 208/208/208
f 176/176/176 177/177/177 210/210/210 209/209/209
f 177/177/177 178/178/178 211/211/211 210/210/210
f 178/178/178 179/179/179 212/212/212 211/211/211
f 179/179/179 180/180/180 213/213/213 212/212/212
f 180/180/180 181/181/181 214/214/214 213/213/213
f 181/181/181 182/182/182 215/215/215 214/214/214
f 182/182/182 183/183/183 216/216/216 215/215/215
f 183/183/183 184/184/184 217/217/217 216/216/216
f 184/184/184 185/185/185 218/218/218 217/217/217
f 185/185/185 186/186/186 219/219/219 218/218/218
f 186/186/186 187/187/187 220/220/220 219/219/219
f 187/187/187 188/188/188 221/221/221 220/220/220
f 188/188/188 189/189/189 222/222/222 221/221/221
f 189/189/189 190/190/190 223/223/223 222/222/222
f 190/190/190 191/191/191 224/224/224 223/223/223
f 191/191/191 192/192/192 225/225/225 224/224/224
f 192/192/192 193/193/193 226/226/226 225/225/225
f 193/193/193 194/194/194 227/227/227 226/226/226
f 194/194/194 195/195/195 228/228/228 227/227/227
f 195/195/195 196/196/196 229/229/229 228/228/228
f 196/196/196 197/197/197 230/230/230 229/229/229
f 197/197/197 198/198/198 231/231/231 230/230/230
f 199/199/199 200/200/200 233/233/233 232/232/232
f 200/200/200 201/201/201 234/234/234 233/233/233
f 201/201/201 202/202/202 235/235/235 234/234/234
f 202/202/202 203/203/203 236/236/236 235/235/235
f 203/203/203 204/204/204 237/237/237 236/236/236
f 204/204/204 205/205/205 238/238/238 237/237/237
f 205/205/205 206/206/206 239/239/239 238/238/238
f 206/206/206 207/207/207 240/240/240 239/239/239
f 207/207/207 208/208/208 241/241/241 240/240/240
f 208/208/208 209/209/209 242/242/242 241/241/241
f 209/209/209 210/210/210 243/243/243 242/242/242
f 210/210/210 211/211/211 244/244/244 243/243/243
f 211/211/211 212/212/212 245/245/245 244/244/244
f 212/212/212 213/213/213 246/246/246 245/245/245
f 213/213/213 214/214/214 247/247/247 246/246/246
f 214/214/214 215/215/215 248/248/248 247/247/247
f 215/215/215 216/216/216 249/249/249 248/248/248
f 216/216/216 217/217/217 250/250/250 249/249/249
f 217/217/217 218/218/218 251/251/251 250/250/250
f 218/218/218 219/219/219 252/252/252 251/251/251
f 219/219/219 220/220/220 253/253/253 252/252/252
f 220/220/220 221/221/221 254/254/254 253/253/253
f 221/221/221 222/222/222 255/255/255 254/254/254
f 222/222/222 223/223/223 256/256/256 255/255/255
f 223/223/223 224/224/224 257/257/257 256/256/256
f 224/224/224 225/225/225 258/258/258 257/257/257
f 225/225/225 226/226/226 259/259/259 258/258/258
f 226/226/226 227/227/227 260/260/260 259/259/259
f 227/227/227 228/228/228 261/261/261 260/260/260
f 228/228/228 229/229/229 262/262/262 261/261/261
f 229/229/229 230/230/230 263/263/263 262/262/262
f 230/230/230 231/231/231 264/264/264 263/263/263
f 232/232/232 233/233/233 266/266/266 265/265/265
f 233/233/233 234/234/234 267/267/267 266/266/266
f 234/234/234 235/235/235 268/268/268 267/267/267
f 235/235/235 236/236/236 269/269/269 268/268/268
f 236/236/236 237/237/237 270/270/270 269/269/269
f 237/237/237 238/238/238 271/271/271 270/270/270
f 238/238/238 239/239/239 272/272/272 271/271/271
f 239/239/239 240/240/240 273/273/273 272/272/272
f 240/240/240 241/241/241 274/274/274 273/273/273
f 241/241/241 242/242/242 275/275/275 274/274/274
f 242/242/242 243/243/243 276/276/276 275/275/275
f 243/243/243 244/244/244 277/277/277 276/276/276
f 244/244/244 245/245/245 278/278/278 277/277/277
f 245/245/245 246/246/246 279/279/279 278/278/278
f 246/246/246 247/247/247 280/280/280 279/279/279
f 247/247/247 248/248/248 281/281/281 280/280/280
f 248/248/248 249/249/249 282/282/282 281/281/281
f 249/249/249 250/250/250 283/283/283 282/282/282
f 250/250/250 251/251/251 284/284/284 283/283/283
f 251/251/251 252/252/252 285/285/285 284/284/284
f 252/252/252 253/253/253 286/286/286 285/285/285
f 253/253/253 254/254/254 287/287/287 286/286/286
f 254/254/254 255/255/255 288/288/288 287/287/287
f 255/255/255 256/256/256 289/289/289 288/288/288
f 256/256/256 257/257/257 290/290/290 289/289/289
f 257/257/257 258/258/258 291/291/291 290/290/290
f 258/258/258 259/259/259 292/292/292 291/291/291
f 259/259/259 260/260/260 293/293/293 292/292/292
f 260/260/260 261/261/261 294/294/294 293/293/293
f 261/261/261 262/262/262 295/295/295 294/294/294
f 262/262/262 263/263/263 296/296/296 295/295/295
f 263/263/263 264/264/264 297/297/297 296/296/296
f 265/265/265 266/266/266 299/299/299 298/298/298
f 266/266/266 267/267/267 300/300/300 299/299/299
f 267/267/267 268/268/268 301/301/301 300/300/300
f 268/268/268 269/269/269 302/302/302 301/301/301
f 269/269/269 270/270/270 303/303/303 302/302/302
f 270/270/270 271/271/271 304/304/304 303/303/303
f 271/271/271 272/272/272 305/305/305 304/304/304
f 272/272/272 273/273/273 306/306/306 305/305/305
f 273/273/273 274/274/274 307/307/307 306/306/306
f 274/274/274 275/275/275 308/308/308 307/307/307
f 275/275/275 276/276/276 309/309/309 308/308/308
f 276/276/276 277/277/277 310/310/310 309/309/309
f 277/277/277 278/278/278 311/311/311 310/310/310
f 278/278/278 279/279/279 312/312/312 311/311/311
f 279/279/279 280/280/280 313/313/313 312/312/312
f 280/280/280 281/281/281 314/314/314 313/313/313
f 281/281/281 282/282/282 315/315/315 314/314/314
f 282/282/282 283/283/283 316/316/316 315/315/315
f 283/283/283 284/284/284 317/317/317 316/316/316
f 284/284/284 285/285/285 318/318/318 317/317/317
f 285/285/285 286/286/286 319/319/319 318/318/318
f 286/286/286 287/287/287 320/320/320 319/319/319
f 287/287/287 288/288/288 321/321/321 320/320/320
f 288/288/288 289/289/289 322/322/322 321/321/321
f 289/289/289 290/290/290 323/323/323 322/322/322
f 290/290/290 291/291/291 324/324/324 323/323/323
f 291/291/291 292/292/292 325/325/325 324/324/324
f 292/292/292 293/293/293 326/326/326 325/325/325
f 293/293/293 294/294/294 327/327/327 326/326/326
f 294/294/294 295/295/295 328/328/328 327/327/327
f 295/295/295 296/296/296 329/329/329 328/328/328
f 296/296/296 297/297/297 330/330/330 329/329/329
f 298/298/298 299/299/299 332/332/332 331/331/331
f 299/299/299 300/300/300 333/333/333 332/332/332
f 300/300/300 301/301/301 334/334/334 333/333/333
f 301/301/301 302/302/302 335/335/335 334/334/334
f 302/302/302 303/303/303 336/336/336 335/335/335
f 303/303/303 304/304/304 337/337/337 336/336/336
f 304/304/304 305/305/305 338/338/338 337/337/337
f 305/305/305 306/306/306 339/339/339 338/338/338
f 306/306/306 307/307/307 340/340/340 339/339/339
f 307/307/307 308/308/308 341/341/341 340/340/340
f 308/308/308 309/309/309 342/342/342 341/341/341
f 309/309/309 310/310/310 343/343/343 342/342/342
f 310/310/310 311/311/311 344/344/344 343/343/343
f 311/311/311 312/312/312 345/345/345 344/344/344
f 312/312/312 313/313/313 346/346/346 345/345/345
f 313/313/313 314/314/314 347/347/347 346/346/346
f 314/314/314 315/315/315 348/348/348 347/347/347
f 315/315/315 316/316/316 349/349/349 348/348/348
f 316/316/316 317/317/317 350/350/350 349/349/349
f 317/317/317 318/318/318 351/351/351 350/350/350
f 318/318/318 319/319/319 352/352/352 351/351/351
f 319/319/319 320/320/320 353/353/353 352/352/352
f 320/320/320 321/321/321 354/354/354 353/353/353
f 321/321/321 322/322/322 355/355/355 354/354/354
f 322/322/322 323/323/323 356/356/356 355/355/355
f 323/323/323 324/324/324 357/357/357 356/356/356
f 324/324/324 325/325/325 358/358/358 357/357/357
f 325/325/325 326/326/326 359/359/359 358/358/358
f 326/326/326 327/327/327 360/360/360 359/359/359
f 327/327/327 328/328/328 361/361/361 360/360/360
f 328/328/328 329/329/329 362/362/362 361/361/361
f 329/329/329 330/330/330 363/363/363 362/362/362
f 331/331/331 332/332/332 365/365/365 364/364/364
f 332/332/332 333/333/333 366/366/366 365/365/365
f 333/333/333 334/334/334 367/367/367 366/366/366
f 334/334/334 335/335/335 368/368/368 367/367/367
f 335/335/335 336/336/336 369/369/369 368/368/368
f 336/336/336 337/337/337 370/370/370 369/369/369
f 337/337/337 338/338/338 371/371/371 370/370/370
f 338/338/338 339/339/339 372/372/372 371/371/371
f 339/339/339 340/340/340 373/373/373 372/372/372
f 340/340/340 341/341/341 374/374/374 373/373/373
f 341/341/341 342/342/342 375/375/375 374/374/374
f 342/342/342 343/343/343 376/376/376 375/375/375
f 343/343/343 344/344/344 377/377/377 376/376/376
f 344/344/344 345/345/345 378/378/378 377/377/377
f 345/345/345 346/346/346 379/379/379 378/378/378
f 346/346/346 347/347/347 380/380/380 379/379/379
f 347/347/347 348/348/348 381/381/381 380/380/380
f 348/348/348 349/349/349 382/382/382 381/381/381
f 349/349/349 350/350/350 383/383/383 382/382/382
f 350/350/350 351/351/351 384/384/384 383/383/383
f 351/351/351 352/352/352 385/385/385 384/384/384
f 352/352/352 353/353/353 386/386/386 385/385/385
f 353/353/353 354/354/354 387/387/387 386/386/386
f 354/354/354 355/355/355 388/388/388 387/387/387
f 355/355/355 356/356/356 389/389/389 388/388/388
f 356/356/356 357/357/357 390/390/390 389/389/389
f 357/357/357 358/358/358 391/391/391 390/390/390
f 358/358/358 359/359/359 392/392/392 391/391/391
f 359/359/359 360/360/360 393/393/393 392/392/392
f 360/360/360 361/361/361 394/394/394 393/393/393
f 361/361/361 362/362/362 395/395/395 394/394/394
f 362/362/362 363/363/363 396/396/396 395/395/395
f 364/364/364 365/365/365 398/398/398 397/397/397
f 365/365/365 366/366/366 399/399/399 398/398/398
f 366/366/366 367/367/367 400/400/400 399/399/399
f 367/367/367 368/368/368 401/401/401 400/400/400
f 368/368/368 369/369/369 402/402/402 401/401/401
f 369/369/369 370/370/370 403/403/403 402/402/402
f 370/370/370 371/371/371 404/404/404 403/403/403
f 371/371/371 372/372/372 405/405/405 404/404/404
f 372/372/372 373/373/373 406/406/406 405/405/405
f 373/373/373 374/374/374 407/407/407 406/406/406
f 374/374/374 375/375/375 408/408/408 407/407/407
f 375/375/375 376/376/376 409/409/409 408/408/408
f 376/376/376 377/377/377 410/410/410 409/409/409
f 377/377/377 378/378/378 411/411/411 410/410/410
f 378/378/378 379/379/379 412/412/412 411/411/411
f 379/379/379 380/380/380 413/413/413 412/412/412
f 380/380/380 381/381/381 414/414/414 413/413/413
f 381/381/381 382/382/382 415/415/415 414/414/414
f 382/382/382 383/383/383 416/416/416 415/415/415
f 383/383/383 384/384/384 417/417/417 416/416/416
f 384/384/384 385/385/385 418/418/418 417/417/417
f 385/385/385 386/386/386 419/419/419 418/418/418
f 386/386/386 387/387/387 420/420/420 419/419/419
f 387/387/387 388/388/388 421/421/421 420/420/420
f 388/388/388 389/389/389 422/422/422 421/421/421
f 389/389/389 390/390/390 423/423/423 422/422/422
f 390/390/390 391/391/391 424/424/424 423/423/423
f 391/391/391 392/392/392 425/425/425 424/424/424
f 392/392/392 393/393/393 426/426/426 425/425/425
f 393/393/393 394/394/394 427/427/427 426/426/426
f 394/394/394 395/395/395 428/428/428 427/427/427
f 395/395/395 396/396/396 429/429/429 428/428/428
f 397/397/397 398/398/398 431/431/431 430/430/430
f 398/398/398 399/399/399 432/432/432 431/431/431
f 399/399/399 400/400/400 433/433/433 432/432/432
f 400/400/400 401/401/401 434/434/434 433/433/433
f 401/401/401 402/402/402 435/435/435 434/434/434
f 402/402/402 403/403/403 436/436/436 435/435/435
f 403/403/403 404/404/404 437/437/437 436/436/436
f 404/404/404 405/405/405 438/438/438 437/437/437
f 405/405/405 406/406/406 439/439/439 438/438/438
f 406/406/406 407/407/407 440/440/440 439/439/439
f 407/407/407 408/408/408 441/441/441 440/440/440
f 408/408/408 409/409/409 442/442/442 441/441/441
f 409/409/409 410/410/410 443/443/443 442/442/442
f 410/410/410 411/411/411 444/444/444 443/443/443
f 411/411/411 412/412/412 445/445/445 444/444/444
f 412/412/412 413/413/413 446/446/446 445/445/445
f 413/413/413 414/414/414 447/447/447 446/446/446
f 414/414/414 415/415/415 448/448/448 447/447/447
f 415/415/415 416/416/416 449/449/449 448/448/448
f 416/416/416 417/417/417 450/450/450 449/449/449
f 417/417/417 418/418/418 451/451/451 450/450/450
f 418/418/418 419/419/419 452/452/452 451/451/451
f 419/419/419 420/420/420 453/453/453 452/452/452
f 420/420/420 421/421/421 454/454/454 453/453/453
f 421/421/421 422/422/422 455/455/455 454/454/454
f 422/422/422 423/423/423 456/456/456 455/455/455
f 423/423/423 424/424/424 457/457/457 456/456/456
f 424/424/424 425/425/425 458/458/458 457/457/457
f 425/425/425 426/426/426 459/459/459 458/458/458
f 426/426/426 427/427/427 460/460/460 459/459/459
f 427/427/427 428/428/428 461/461/461 460/460/460
f 428/428/428 429/429/429 462/462/462 461/461/461
f 430/430/430 431/431/431 464/464/464 463/463/463
f 431/431/431 432/432/432 465/465/465 464/464/464
f 432/432/432 433/433/433 466/466/466 465/465/465
f 433/433/433 434/434/434 467/467/467 466/466/466
f 434/434/434 435/435/435 468/468/468 467/467/467
f 435/435/435 436/436/436 469/469/469 468/468/468
f 436/436/436 437/437/437 470/470/470 469/469/469
f 437/437/437 438/438/438 471/471/471 470/470/470
f 438/438/438 439/439/439 472/472/472 471/471/471
f 439/439/439 440/440/440 473/473/473 472/472/472
f 440/440/440 441/441/441 474/474/474 473/473/473
f 441/441/441 442/442/442 475/475/475 474/474/474
f 442/442/442 443/443/443 476/476/476 475/475/475
f 443/443/443 444/444/444 477/477/477 476/476/476
f 444/444/444 445/445/445 478/478/478 477/477/477
f 445/445/445 446/446/446 479/479/479 478/478/478
f 446/446/446 447/447/447 480/480/480 479/479/479
f 447/447/447 448/448/448 481/481/481 480/480/480
f 448/448/448 449/449/449 482/482/482 481/481/481
f 449/449/449 450/450/450 483/483/483 482/482/482
f 450/450/450 451/451/451 484/484/484 483/483/483
f 451/451/451 452/452/452 485/485/485 484/484/484
f 452/452/452 453/453/453 486/486/486 485/485/485
f 453/453/453 454/454/454 487/487/487 486/486/486
f 454/454/454 455/455/455 488/488/488 487/487/487
f 455/455/455 456/456/456 489/489/489 488/488/488
f 456/456/456 457/457/457 490/490/490 489/489/489
f 457/457/457 458/458/458 491/491/491 490/490/490
f 458/458/458 459/459/459 492/492/492 491/491/491
f 459/459/459 460/460/460 493/493/493 492/492/492
f 460/460/460 461/461/461 494/494/494 493/493/493
f 461/461/461 462/462/462 495/495/495 494/494/494
f 463/463/463 464/464/464 497/497/497 496/496/496
f 464/464/464 465/465/465 498/498/498 497/497/497
f 465/465/465 466/466/466 499/499/499 498/498/498
f 466/466/466 467/467/467 500/500/500 499/499/499
f 467/467/467 468/468/468 501/501/501 500/500/500
f 468/468/468 469/469/469 502/502/502 501/501/501
f 469/469/469 470/470/470 503/503/503 502/502/502
f 470/470/470 471/471/471 504/504/504 503/503/503
f 471/471/471 472/472/472 505/505/505 504/504/504
f 472/472/472 473/473/473 506/506/506 505/505/505
f 473/473/473 474/474/474 507/507/507 506/506/506
f 474/474/474 475/475/475 508/508/508 507/507/507
f 475/475/475 476/476/476 509/509/509 508/508/508
f 476/476/476 477/477/477 510/510/510 509/509/509
f 477/477/477 478/478/478 511/511/511 510/510/510
f 478/478/478 479/479/479 512/512/512 511/511/511
f 479/479/479 480/480/480 513/513/513 512/512/512
f 480/480/480 481/481/481 514/514/514 513/513/513
f 481/481/481 482/482/482 515/515/515 514/514/514
f 482/482/482 483/483/483 516/516/516 515/515/515
f 483/483/483 484/484/484 517/517/517 516/516/516
f 484/484/484 485/485/485 518/518/518 517/517/517
f 485/485/485 486/486/486 519/519/519 518/518/518
f 486/486/486 487/487/487 520/520/520 519/519/519
f 487/487/487 488/488/488 521/521/521 520/520/520
f 488/488/488 489/489/489 522/522/522 521/521/521
f 489/489/489 490/490/490 523/523/523 522/522/522
f 490/490/490 491/491/491 524/524/524 523/523/523
f 491/491/491 492/492/492 525/525/525 524/524/524
f 492/492/492 493/493/493 526/526/526 525/525/525
f 493/493/493 494/494/494 527/527/527 526/526/526
f 494/494/494 495/495/495 528/528/528 527/527/527
f 496/496/496 497/497/497 530/530/530 529/529/529
f 497/497/497 498/498/498 531/531/531 530/530/530
f 498/498/498 499/499/499 532/532/532 531/531/531
f 499/499/499 500/500/500 533/533/533 532/532/532
f 500/500/500 501/501/501 534/534/534 533/533/533
f 501/501/501 502/502/502 535/535/535 534/534/534
f 502/502/502 503/503/503 536/536/536 535/535/535
f 503/503/503 504/504/504 537/537/537 536/536/536
f 504/504/504 505/505/505 538/538/538 537/537/537
f 505/505/505 506/506/506 539/539/539 538/538/538
f 506/506/506 507/507/507 540/540/540 539/539/539
f 507/507/507 508/508/508 541/541/541 540/540/540
f 508/508/508 509/509/509 542/542/542 541/541/541
f 509/509/509 510/510/510 543/543/543 542/542/542
f 510/510/510 511/511/511 544/544/544 543/543/543
f 511/511/511 512/512/512 545/545/545 544/544/544
f 512/512/512 513/513/513 546/546/546 545/545/545
f 513/513/513 514/514/514 547/547/547 546/546/546
f 514/514/514 515/515/515 548/548/548 547/547/547
f 515/515/515 516/516/516 549/549/549 548/548/548
f 516/516/516 517/517/517 550/550/550 549/549/549
f 517/517/517 518/518/518 551/551/551 550/550/550
f 518/518/518 519/519/519 552/552/552 551/551/551
f 519/519/519 520/520/520 553/553/553 552/552/552
f 520/520/520 521/521/521 554/554/554 553/553/553
f 521/521/521 522/522/522 555/555/555 554/554/554
f 522/522/522 523/523/523 556/556/556 555/555/555
f 523/523/523 524/524/524 557/557/557 556/556/556
f 524/524/524 525/525/525 558/558/558 557/557/557
f 525/525/525 526/526/526 559/559/559 558/558/558
f 526/526/526 527/527/527 560/560/560 559/559/559
f 527/527/527 528/528/528 561/561/561 560/560/560
f 529/529/529 530/530/530 563/563/563
f 530/530/530 531/531/531 564/564/564
f 531/531/531 532/532/532 565/565/565
f 532/532/532 533/533/533 566/566/566
f 533/533/533 534/534/534 567/567/567
f 534/534/534 535/535/535 568/568/568
f 535/535/535 536/536/536 569/569/569
f 536/536/536 537/537/537 570/570/570
f 537/537/537 538/538/538 571/571/571
f 538/538/538 539/539/539 572/572/572
f 539/539/539 540/540/540 573/573/573
f 540/540/540 541/541/541 574/574/574
f 541/541/541 542/542/542 575/575/575
f 542/542/542 543/543/543 576/576/576
f 543/543/543 544/544/544 577/577/577
f 544/544/544 545/545/545 578/578/578
f 545/545/545 546/546/546 579/579/579
f 546/546/546 547/547/547 580/580/580
f 547/547/547 548/548/548 581/581/581
f 548/548/548 549/549/549 582/582/582
f 549/549/549 550/550/550 583/583/583
f 550/550/550 551/551/551 584/584/584
f 551/551/551 552/552/552 585/585/585
f 552/552/552 553/553/553 586/586/586
f 553/553/553 554/554/554 587/587/587
f 554/554/554 555/555/555 588/588/588
f 555/555/555 556/556/556 589/589/589
f 556/556/556 557/557/557 590/590/590
f 557/557/557 558/558/558 591/591/591
f 558/558/558 559/559/559 592/592/592
f 559/559/559 560/560/560 593/593/593
f 560/560/560 561/561/561 594/594/594
