o cone
v 0.500000 -0.500000 0.000000
v 0.000000 0.500000 0.000000
v 0.490393 -0.500000 0.097545
v 0.000000 0.500000 0.000000
v 0.461940 -0.500000 0.191342
v 0.000000 0.500000 0.000000
v 0.415735 -0.500000 0.277785
v 0.000000 0.500000 0.000000
v 0.353553 -0.500000 0.353553
v 0.000000 0.500000 0.000000
v 0.277785 -0.500000 0.415735
v 0.000000 0.500000 0.000000
v 0.191342 -0.500000 0.461940
v 0.000000 0.500000 0.000000
v 0.097545 -0.500000 0.490393
v 0.000000 0.500000 0.000000
v 0.000000 -0.500000 0.500000
v 0.000000 0.500000 0.000000
v -0.097545 -0.500000 0.490393
v 0.000000 0.500000 0.000000
v -0.191342 -0.500000 0.461940
v 0.000000 0.500000 0.000000
v -0.277785 -0.500000 0.415735
v 0.000000 0.500000 0.000000
v -0.353553 -0.500000 0.353553
v 0.000000 0.500000 0.000000
v -0.415735 -0.500000 0.277785
v 0.000000 0.500000 0.000000
v -0.461940 -0.500000 0.191342
v 0.000000 0.500000 0.000000
v -0.490393 -0.500000 0.097545
v 0.000000 0.500000 0.000000
v -0.500000 -0.500000 0.000000
v 0.000000 0.500000 0.000000
v -0.490393 -0.500000 -0.097545
v 0.000000 0.500000 0.000000
v -0.461940 -0.500000 -0.191342
v 0.000000 0.500000 0.000000
v -0.415735 -0.500000 -0.277785
v 0.000000 0.500000 0.000000
v -0.353553 -0.500000 -0.353553
v 0.000000 0.500000 0.000000
v -0.277785 -0.500000 -0.415735
v 0.000000 0.500000 0.000000
v -0.191342 -0.500000 -0.461940
v 0.000000 0.500000 0.000000
v -0.097545 -0.500000 -0.490393
v 0.000000 0.500000 0.000000
v 0.000000 -0.500000 -0.500000
v 0.000000 0.500000 0.000000
v 0.097545 -0.500000 -0.490393
v 0.000000 0.500000 0.000000
v 0.191342 -0.500000 -0.461940
v 0.000000 0.500000 0.000000
v 0.277785 -0.500000 -0.415735
v 0.000000 0.500000 0.000000
v 0.353553 -0.500000 -0.353553
v 0.000000 0.500000 0.000000
v 0.415735 -0.500000 -0.277785
v 0.000000 0.500000 0.000000
v 0.461940 -0.500000 -0.191342
v 0.000000 0.500000 0.000000
v 0.490393 -0.500000 -0.097545
v 0.000000 0.500000 0.000000
v 0.500000 -0.500000 0.000000
v 0.000000 -0.500000 0.000000
v 0.500000 -0.500000 0.000000
v 0.490393 -0.500000 0.097545
v 0.461940 -0.500000 0.191342
v 0.415735 -0.500000 0.277785
v 0.353553 -0.500000 0.353553
v 0.277785 -0.500000 0.415735
v 0.191342 -0.500000 0.461940
v 0.097545 -0.500000 0.490393
v 0.000000 -0.500000 0.500000
v -0.097545 -0.500000 0.490393
v -0.191342 -0.500000 0.461940
v -0.277785 -0.500000 0.415735
v -0.353553 -0.500000 0.353553
v -0.415735 -0.500000 0.277785
v -0.461940 -0.500000 0.191342
v -0.490393 -0.500000 0.097545
v -0.500000 -0.500000 0.000000
v -0.490393 -0.500000 -0.097545
v -0.461940 -0.500000 -0.191342
v -0.415735 -0.500000 -0.277785
v -0.353553 -0.500000 -0.353553
v -0.277785 -0.500000 -0.415735
v -0.191342 -0.500000 -0.461940
v -0.097545 -0.500000 -0.490393
v 0.000000 -0.500000 -0.500000
v 0.097545 -0.500000 -0.490393
v 0.191342 -0.500000 -0.461940
v 0.277785 -0.500000 -0.415735
v 0.353553 -0.500000 -0.353553
v 0.415735 -0.500000 -0.277785
v 0.461940 -0.500000 -0.191342
v 0.490393 -0.500000 -0.097545
v 0.500000 -0.500000 0.000000
vt 0.000000 0.000000
vt 0.015625 1.000000
vt 0.031250 0.000000
vt 0.046875 1.000000
vt 0.062500 0.000000
vt 0.078125 1.000000
vt 0.093750 0.000000
vt 0.109375 1.000000
vt 0.125000 0.000000
vt 0.140625 1.000000
vt 0.156250 0.000000
vt 0.171875 1.000000
vt 0.187500 0.000000
vt 0.203125 1.000000
vt 0.218750 0.000000
vt 0.234375 1.000000
vt 0.250000 0.000000
vt 0.265625 1.000000
vt 0.281250 0.000000
vt 0.296875 1.000000
vt 0.312500 0.000000
vt 0.328125 1.000000
vt 0.343750 0.000000
vt 0.359375 1.000000
vt 0.375000 0.000000
vt 0.390625 1.000000
vt 0.406250 0.000000
vt 0.421875 1.000000
vt 0.437500 0.000000
vt 0.453125 1.000000
vt 0.468750 0.000000
vt 0.484375 1.000000
vt 0.500000 0.000000
vt 0.515625 1.000000
vt 0.531250 0.000000
vt 0.546875 1.000000
vt 0.562500 0.000000
vt 0.578125 1.000000
vt 0.593750 0.000000
vt 0.609375 1.000000
vt 0.625000 0.000000
vt 0.640625 1.000000
vt 0.656250 0.000000
vt 0.671875 1.000000
vt 0.687500 0.000000
vt 0.703125 1.000000
vt 0.718750 0.000000
vt 0.734375 1.000000
vt 0.750000 0.000000
vt 0.765625 1.000000
vt 0.781250 0.000000
vt 0.796875 1.000000
vt 0.812500 0.000000
vt 0.828125 1.000000
vt 0.843750 0.000000
vt 0.859375 1.000000
vt 0.875000 0.000000
vt 0.890625 1.000000
vt 0.906250 0.000000
vt 0.921875 1.000000
vt 0.937500 0.000000
vt 0.953125 1.000000
vt 0.968750 0.000000
vt 0.984375 1.000000
vt 1.000000 0.000000
vt 0.500000 0.500000
vt 1.000000 0.500000
vt 0.990393 0.597545
vt 0.961940 0.691342
vt 0.915735 0.777785
vt 0.853553 0.853553
vt 0.777785 0.915735
vt 0.691342 0.961940
vt 0.597545 0.990393
vt 0.500000 1.000000
vt 0.402455 0.990393
vt 0.308658 0.961940
vt 0.222215 0.915735
vt 0.146447 0.853553
vt 0.084265 0.777785
vt 0.038060 0.691342
vt 0.009607 0.597545
vt 0.000000 0.500000
vt 0.009607 0.402455
vt 0.038060 0.308658
vt 0.084265 0.222215
vt 0.146447 0.146447
vt 0.222215 0.084265
vt 0.308658 0.038060
vt 0.402455 0.009607
vt 0.500000 0.000000
vt 0.597545 0.009607
vt 0.691342 0.038060
vt 0.777785 0.084265
vt 0.853553 0.146447
vt 0.915735 0.222215
vt 0.961940 0.308658
vt 0.990393 0.402455
vt 1.000000 0.500000
vn 0.894427 0.447214 0.000000
vn 0.890120 0.447214 0.087669
vn 0.877241 0.447214 0.174494
vn 0.855913 0.447214 0.259639
vn 0.826343 0.447214 0.342282
vn 0.788814 0.447214 0.421630
vn 0.743689 0.447214 0.496917
vn 0.691402 0.447214 0.567419
vn 0.632456 0.447214 0.632456
vn 0.567419 0.447214 0.691402
vn 0.496917 0.447214 0.743689
vn 0.421630 0.447214 0.788814
vn 0.342282 0.447214 0.826343
vn 0.259639 0.447214 0.855913
vn 0.174494 0.447214 0.877241
vn 0.087669 0.447214 0.890120
vn 0.000000 0.447214 0.894427
vn -0.087669 0.447214 0.890120
vn -0.174494 0.447214 0.877241
vn -0.259639 0.447214 0.855913
vn -0.342282 0.447214 0.826343
vn -0.421630 0.447214 0.788814
vn -0.496917 0.447214 0.743689
vn -0.567419 0.447214 0.691402
vn -0.632456 0.447214 0.632456
vn -0.691402 0.447214 0.567419
vn -0.743689 0.447214 0.496917
vn -0.788814 0.447214 0.421630
vn -0.826343 0.447214 0.342282
vn -0.855913 0.447214 0.259639
vn -0.877241 0.447214 0.174494
vn -0.890120 0.447214 0.087669
vn -0.894427 0.447214 0.000000
vn -0.890120 0.447214 -0.087669
vn -0.877241 0.447214 -0.174494
vn -0.855913 0.447214 -0.259639
vn -0.826343 0.447214 -0.342282
vn -0.788814 0.447214 -0.421630
vn -0.743689 0.447214 -0.496917
vn -0.691402 0.447214 -0.567419
vn -0.632456 0.447214 -0.632456
vn -0.567419 0.447214 -0.691402
vn -0.496917 0.447214 -0.743689
vn -0.421630 0.447214 -0.788814
vn -0.342282 0.447214 -0.826343
vn -0.259639 0.447214 -0.855913
vn -0.174494 0.447214 -0.877241
vn -0.087669 0.447214 -0.890120
vn 0.000000 0.447214 -0.894427
vn 0.087669 0.447214 -0.890120
vn 0.174494 0.447214 -0.877241
vn 0.259639 0.447214 -0.855913
vn 0.342282 0.447214 -0.826343
vn 0.421630 0.447214 -0.788814
vn 0.496917 0.447214 -0.743689
vn 0.567419 0.447214 -0.691402
vn 0.632456 0.447214 -0.632456
vn 0.691402 0.447214 -0.567419
vn 0.743689 0.447214 -0.496917
vn 0.788814 0.447214 -0.421630
vn 0.826343 0.447214 -0.342282
vn 0.855913 0.447214 -0.259639
vn 0.877241 0.447214 -0.174494
vn 0.890120 0.447214 -0.087669
vn 0.894427 0.447214 0.000000
vn 0.000000 -1.000000 0.000000
f 1/1/1 2/2/2 3/3/3
f 3/3/3 4/4/4 5/5/5
f 5/5/5 6/6/6 7/7/7
f 7/7/7 8/8/8 9/9/9
f 9/9/9 10/10/10 11/11/11
f 11/11/11 12/12/12 13/13/13
f 13/13/13 14/14/14 15/15/15
f 15/15/15 16/16/16 17/17/17
f 17/17/17 18/18/18 19/19/19
f 19/19/19 20/20/20 21/21/21
f 21/21/21 22/22/22 23/23/23
f 23/23/23 24/24/24 25/25/25
f 25/25/25 26/26/26 27/27/27
f 27/27/27 28/28/28 29/29/29
f 29/29/29 30/30/30 31/31/31
f 31/31/31 32/32/32 33/33/33
f 33/33/33 34/34/34 35/35/35
f 35/35/35 36/36/36 37/37/37
f 37/37/37 38/38/38 39/39/39
f 39/39/39 40/40/40 41/41/41
f 41/41/41 42/42/42 43/43/43
f 43/43/43 44/44/44 45/45/45
f 45/45/45 46/46/46 47/47/47
f 47/47/47 48/48/48 49/49/49
f 49/49/49 50/50/50 51/51/51
f 51/51/51 52/52/52 53/53/53
f 53/53/53 54/54/54 55/55/55
f 55/55/55 56/56/56 57/57/57
f 57/57/57 58/58/58 59/59/59
f 59/59/59 60/60/60 61/61/61
f 61/61/61 62/62/62 63/63/63
f 63/63/63 64/64/64 65/65/65
f 66/66/66 67/67/66 68/68/66
f 66/66/66 68/68/66 69/69/66
f 66/66/66 69/69/66 70/70/66
f 66/66/66 70/70/66 71/71/66
f 66/66/66 71/71/66 72/72/66
f 66/66/66 72/72/66 73/73/66
f 66/66/66 73/73/66 74/74/66
f 66/66/66 74/74/66 75/75/66
f 66/66/66 75/75/66 76/76/66
f 66/66/66 76/76/66 77/77/66
f 66/66/66 77/77/66 78/78/66
f 66/66/66 78/78/66 79/79/66
f 66/66/66 79/79/66 80/80/66
f 66/66/66 80/80/66 81/81/66
f 66/66/66 81/81/66 82/82/66
f 66/66/66 82/82/66 83/83/66
f 66/66/66 83/83/66 84/84/66
f 66/66/66 84/84/66 85/85/66
f 66/66/66 85/85/66 86/86/66
f 66/66/66 86/86/66 87/87/66
f 66/66/66 87/87/66 88/88/66
f 66/66/66 88/88/66 89/89/66
f 66/66/66 89/89/66 90/90/66
f 66/66/66 90/90/66 91/91/66
f 66/66/66 91/91/66 92/92/66
f 66/66/66 92/92/66 93/93/66
f 66/66/66 93/93/66 94/94/66
f 66/66/66 94/94/66 95/95/66
f 66/66/66 95/95/66 96/96/66
f 66/66/66 96/96/66 97/97/66
f 66/66/66 97/97/66 98/98/66
f 66/66/66 98/98/66 99/99/66
